<svg width="235" height="156" viewBox="0 0 235 156" fill="none" xmlns="http://www.w3.org/2000/svg">
<circle cx="25" cy="25" r="22.5" stroke="black" stroke-width="5"/>
<path d="M214.732 154.768C215.709 155.744 217.291 155.744 218.268 154.768L234.178 138.858C235.154 137.882 235.154 136.299 234.178 135.322C233.201 134.346 231.618 134.346 230.642 135.322L216.5 149.464L202.358 135.322C201.382 134.346 199.799 134.346 198.822 135.322C197.846 136.299 197.846 137.882 198.822 138.858L214.732 154.768ZM54 77H158.804V72H54V77ZM196.634 92.6698L198.33 94.3658L201.866 90.8302L200.17 89.1343L196.634 92.6698ZM214 132.196V153H219V132.196H214ZM198.33 94.3658C208.363 104.399 214 118.007 214 132.196H219C219 116.681 212.837 101.801 201.866 90.8302L198.33 94.3658ZM158.804 77C172.993 77 186.601 82.6366 196.634 92.6698L200.17 89.1343C189.199 78.1634 174.319 72 158.804 72V77ZM24.5 47.5C24.5 63.7924 37.7076 77 54 77V72C40.469 72 29.5 61.031 29.5 47.5H24.5Z" fill="black"/>
</svg>
