<svg width="1267" height="1457" viewBox="0 0 1267 1457" fill="none" xmlns="http://www.w3.org/2000/svg">
<path d="M507.478 780.245C441.465 608.448 482.366 238.291 1174.07 132.043" stroke="#FF00FF" stroke-width="63" stroke-linecap="square"/>
<path d="M1002.55 42.3633L1193.28 125.824L1066.92 282.502" stroke="#FF00FF" stroke-width="63" stroke-linecap="square"/>
<path d="M75.4716 1427.15C75.4716 1314.61 31.0494 1209.42 29.0176 1097.67C28.1391 1049.36 60.387 1113.62 72.4607 1130.36C122.672 1200.01 188.275 1257.1 244.512 1321.77C253.491 1332.1 267.952 1346.43 275.052 1357.47C291.878 1383.65 277.637 1295.22 276.342 1264.13C273.976 1207.36 244.512 1062.42 244.512 1009" stroke="#FF00FF" stroke-width="58" stroke-linecap="square" stroke-linejoin="bevel"/>
<path d="M372.5 969.999L414.5 1315" stroke="#FF00FF" stroke-width="58" stroke-linecap="square" stroke-linejoin="bevel"/>
<path d="M616.41 980.322C514.018 980.322 504.5 1079.07 504.5 1159C504.5 1238.92 578.97 1250.29 616.41 1251.3C632.433 1251.74 653.815 1248.77 668.5 1241C680.269 1234.77 689.41 1226.42 701.575 1220.33" stroke="#FF00FF" stroke-width="58" stroke-linecap="square" stroke-linejoin="bevel"/>
<path d="M736 930.999C739.244 998.92 768.151 1064.05 777.04 1132.01C778.943 1146.55 781.302 1221.78 792.732 1231.91C796.805 1235.52 946.885 1124.5 975 1115.16" stroke="#FF00FF" stroke-width="58" stroke-linecap="square" stroke-linejoin="bevel"/>
<path d="M768 1071.45C796.334 1061.25 811.028 1033.88 837.681 1025" stroke="#FF00FF" stroke-width="58" stroke-linecap="square" stroke-linejoin="bevel"/>
<path d="M720 938.633C766.393 910.957 831.921 891.957 869.397 853.049C881.065 840.935 909.474 826.131 924.972 822.728" stroke="#FF00FF" stroke-width="58" stroke-linecap="square" stroke-linejoin="bevel"/>
<path d="M1028.5 738.999L1057.72 1003.55" stroke="#FF00FF" stroke-width="58" stroke-linecap="square" stroke-linejoin="bevel"/>
<path d="M1077 1073V1088.48" stroke="#FF00FF" stroke-width="58" stroke-linecap="square" stroke-linejoin="bevel"/>
</svg>
