<?xml version="1.0" encoding="UTF-8"?>
<svg id="Layer_2" data-name="Layer 2" xmlns="http://www.w3.org/2000/svg" viewBox="0 0 412.42 95.48">
  <defs>
    <style>
      .cls-1 {
        stroke: #fff;
        stroke-linejoin: bevel;
        stroke-width: 10px;
      }

      .cls-1, .cls-2 {
        fill: #010101;
      }

      .cls-2 {
        stroke-width: 0px;
      }
    </style>
  </defs>
  <g id="Layer_1-2" data-name="Layer 1">
    <g id="copy">
      <g>
        <path class="cls-1" d="M84.09,14.92c-1.82,8.98-3.65,17.96-5.47,26.94-.68-.14-1.36-.28-2.05-.42,2.02-9.79,4.04-19.59,6.07-29.38.87.66,1.74,1.31,2.61,1.96,2.54.51,5.08,1.01,7.63,1.49.63-.44,1.27-.89,1.9-1.34.81.85,2.39,3.05,2.33,3.44-.05.26-1.52,0-2.1-.08-3.61,3.87-3.77,4.07-7.58,7.32,4.04,2.91,7.23,5.83,6.4,10.44-.99,5.55-6.91,4.69-8.8,4.39,0-1.16-.45-1.31-4.42-2.63.08-.32.16-.63.23-.95,2.88.98,5.09,1.4,5.38,1.46,1.44.28,4.71.89,5.42-2.99.73-3.97-2.07-6.41-4.93-8.99-.65-.63-.65-.86-.62-.99.04-.19.11-.34.59-.81.87-.89,4.23-4.55,6.07-7.16-2.89-.54-5.78-1.11-8.66-1.69M58.91,34.52c3.87.92,7.75,1.8,11.64,2.65.35-1.6.7-3.2,1.05-4.81-3.85-.84-7.7-1.71-11.54-2.63-.38,1.6-.76,3.19-1.14,4.79M60.31,28.66c3.84.91,7.68,1.78,11.52,2.62.32-1.45.63-2.91.95-4.36-3.82-.83-7.64-1.7-11.44-2.6-.34,1.45-.69,2.9-1.03,4.34M74.2,24.36c1.15,1.51,2.22,2.84,2.17,3.06-.04.19-1.24.1-1.67.08-.91,4.24-1.81,8.47-2.72,12.71-.67-.14-1.33-.29-2-.43.11-.51.22-1.02.33-1.53-3.89-.85-7.78-1.73-11.65-2.65-.14.59-.28,1.18-.42,1.77-.66-.16-1.33-.32-1.99-.48.97-4.02,1.94-8.04,2.91-12.07-2.3.62-3.51.82-4.67,1.04-.12-.29-.24-.57-.36-.86,6.91-1.67,11.35-3.97,12.99-4.86-3.04-.7-6.07-1.42-9.1-2.16-.49-.1-.97-.19-1.45-.29-.03-.48-.05-.95-.08-1.43.83.28,1.67.55,2.5.82,2.04.5,4.08.99,6.12,1.46.37-1.6.74-3.19,1.12-4.79-2.04-.48-4.08-.96-6.11-1.46-.38-.08-.77-.17-1.15-.25-.01-.47-.03-.94-.04-1.42.74.26,1.48.52,2.22.78,1.78.43,3.55.85,5.33,1.27.34-1.47.69-2.94,1.03-4.41.92.26,1.84.52,2.76.77.28.07.91.31.83.66-.08.35-.72.37-1.93.26-.24,1.06-.49,2.12-.73,3.18.69.16,1.38.32,2.08.47.55-.43,1.11-.86,1.66-1.3,1.24,1.71,1.35,1.84,1.78,2.76-.12.12-.25.23-.38.35-1.8-.4-3.6-.8-5.39-1.22-.37,1.6-.73,3.2-1.1,4.79.49.11.99.23,1.48.34,4.58-2.8,8.09-6.21,9.54-8.24.79.62,1.57,1.25,2.36,1.87.22.18.51.41.44.72-.06.29-.47.2-.63.17-.16-.04-.61-.16-1.14-.44-1.02,1.01-3.84,3.85-8.22,6.44,1.4.31,2.8.62,4.2.92.65-.54,1.3-1.08,1.94-1.62,1.44,1.94,1.68,2.25,2.07,3.07-.17.14-.35.28-.52.42-3.05-.64-6.09-1.3-9.13-1.98-2.83,1.57-4.88,2.33-6.42,2.9,3.1.73,6.2,1.43,9.3,2.11.62-.44,1.24-.89,1.86-1.33"/>
        <path class="cls-1" d="M129.79,30.17c.62-.51,1.23-1.03,1.84-1.55,1.2.93,2.69,2.65,2.65,3-.03.29-1.42.16-2.01.13-.46,3.86-.92,7.72-1.38,11.58-.25,2.1-.46,3.93-5.63,3.41-.11-1.2-.19-1.29-5.61-2.71.08-.29.17-.59.25-.89.25.07,4.49,1.2,6.62,1.46,2.01.25,2.12.06,2.29-1.36.48-3.97.97-7.93,1.45-11.9-4.14-.51-8.28-1.05-12.41-1.64-.88,6.17-1.76,12.34-2.64,18.51-.69-.1-1.38-.2-2.06-.3.9-6.17,1.8-12.33,2.7-18.5-3.98-.58-7.95-1.2-11.92-1.86-.91,5.45-1.81,10.9-2.72,16.36-.68-.11-1.37-.23-2.05-.34,1.07-6.28,2.13-12.57,3.19-18.85.79.62,1.58,1.24,2.38,1.85,3.75.62,7.51,1.2,11.27,1.75.23-1.59.46-3.18.7-4.77.89.17,1.78.35,2.67.51.49.1,1.15.23,1.1.62-.06.42-.75.52-1.97.51-.16,1.14-.32,2.28-.49,3.42,3.92.56,7.84,1.08,11.76,1.56M132.92,24.55c.65-.63,1.3-1.27,1.94-1.9.72.64,2.21,2.22,2.76,2.97-.12.18-.24.37-.36.55-11.95-1.33-23.87-3.02-35.75-5.07-.82-.06-1.65-.13-2.47-.2,0-.51,0-1.01.01-1.52.98.23,1.95.45,2.93.68,4.96.85,9.93,1.64,14.91,2.37.23-1.57.46-3.14.69-4.71.95.18,1.9.36,2.85.54.65.12,1.47.27,1.4.75-.08.61-1.34.6-2.5.54-.15,1.05-.3,2.11-.45,3.16,4.67.67,9.36,1.28,14.04,1.84"/>
        <path class="cls-1" d="M163.45,34.17c-.04.62-.05.81.74.93.75.09,4.74.4,5.84.46,4.16.23,4.51.07,4.75-.5.19-.38.49-1.44.96-3.31.25.01.5.02.75.04-.03.55-.18,3.02-.17,3.55.75.16,1.46.33,1.43,1.01-.03.59-.63.85-1.31.92-.85.09-4.44.11-6.51,0-8.3-.49-8.68-.63-8.52-2.89.17-2.33.33-4.66.49-6.99-2.5-.18-5.01-.37-7.51-.58-2.46,7.49-5.98,9.87-16.26,10.25-.09-.34-.18-.67-.27-1.01,8.76-.57,12.47-2.83,14.34-9.43-2.75-.24-5.5-.5-8.25-.77-.53,2.34-2.09,4.44-4.26,4.21-.75-.08-1.16-.62-1.1-1.13.08-.78.61-.95,2.26-1.49,2.05-.67,2.3-3.23,2.42-4.4.29.03.58.06.87.09.02.59,0,.82-.04,1.63,4.38.44,8.77.83,13.16,1.18.1-1.27.2-2.53.3-3.8.98.14,1.96.28,2.95.42.29.05.9.13.87.52-.03.39-.54.55-1.96.67-.06.78-.12,1.56-.18,2.34,4.5.34,9,.63,13.51.87.67-.58,1.33-1.17,2-1.76,1.38,1.34,2.88,3.24,2.86,3.59,0,.2-.3.18-.47.17-.38-.02-.83-.14-1.4-.29-.61.62-2.9,2.99-5.45,4.9-.22-.14-.43-.29-.65-.43,1.36-1.68,2.26-2.97,3.42-5.07-3.06-.16-6.12-.34-9.18-.55-.15,2.22-.3,4.44-.45,6.66M157.4,50.68c4.83.36,9.65.67,14.49.93.61-.72,1.23-1.44,1.84-2.16,1.24,1.07,1.9,1.79,2.92,3.04-.15.16-.3.31-.46.47-12.66-.58-25.32-1.53-37.94-2.87-.58,0-1.16-.01-1.74-.02-.17-.58-.34-1.15-.51-1.73.85.21,1.69.42,2.54.63,5.59.59,11.19,1.11,16.79,1.55.24-3.09.49-6.17.73-9.26-4.43-.35-8.86-.75-13.28-1.19-.55-.02-1.11-.05-1.66-.07-.12-.48-.24-.96-.37-1.45.73.14,1.45.28,2.18.42,8.86.89,17.73,1.58,26.61,2.09.59-.67,1.18-1.35,1.77-2.02,1.14.94,2.11,1.87,3.04,2.8-.15.19-.3.38-.45.56-5.27-.26-10.54-.59-15.8-.99-.23,3.09-.47,6.17-.7,9.26"/>
        <path class="cls-1" d="M203.49,31.17c0,1.27,0,2.54-.01,3.81,3.65,0,7.31-.01,10.96-.07-.02-1.27-.04-2.54-.06-3.81-3.63.06-7.26.08-10.89.07M203.5,26.61c0,1.15,0,2.3,0,3.45,3.62,0,7.25-.01,10.87-.07-.02-1.15-.03-2.3-.05-3.45-3.6.05-7.21.08-10.81.07M191.3,50.37c4.73.1,9.47.15,14.21.15,0-1.46,0-2.91,0-4.36-4.7,0-9.41-.05-14.11-.15-.03,1.46-.06,2.91-.09,4.36M191.42,44.9c4.69.1,9.39.15,14.08.15,0-1.32,0-2.65,0-3.97-4.66,0-9.33-.05-13.99-.15-.03,1.32-.06,2.65-.09,3.97M215.14,23.93c1.63,1.31,2.65,2.39,2.65,2.59,0,.16-.12.17-1.53.26.15,8.14.3,16.28.45,24.43.04,2.02-.51,2.88-4.58,3.29-.31-.91-.4-1.16-4.56-1.66,0,.09,0,.17,0,.26-.69,0-1.38,0-2.08,0v-1.46c-4.74,0-9.49-.05-14.23-.15-.01.65-.03,1.3-.04,1.95-.69-.01-1.38-.03-2.08-.05.13-4.99.25-9.99.38-14.98.85.48,1.7.95,2.55,1.43,4.29.09,8.58.14,12.87.14.46-.49.93-.98,1.39-1.47.76.49,2.72,2.14,2.72,2.4,0,.16-.72.3-1.53.43.01,3.52.03,7.04.04,10.55,1.47.16,3.28.34,5.27.32,1.77-.02,1.86-.03,1.84-1.07-.08-5.04-.15-10.08-.23-15.11-3.66.06-7.32.08-10.98.07,0,.47,0,.93,0,1.4-.67,0-1.35,0-2.02,0,.03-4.46.05-8.93.08-13.39.77.47,1.54.94,2.31,1.41,3.34,0,6.67-.01,10-.06.43-.51.87-1.01,1.3-1.52M183.12,34.59c3.57.13,7.14.22,10.7.29.02-1.27.05-2.54.07-3.81-3.55-.07-7.09-.16-10.64-.29-.05,1.27-.09,2.54-.14,3.81M183.29,29.68c3.54.13,7.08.22,10.62.29.02-1.15.04-2.3.06-3.45-3.52-.06-7.04-.16-10.56-.29-.04,1.15-.08,2.3-.12,3.45M193.62,25.4c.4-.48.79-.96,1.18-1.44.53.47,2.57,2.22,2.57,2.51,0,.23-.96.35-1.41.34-.05,3.5-.1,6.99-.16,10.49-.67,0-1.35-.02-2.02-.03,0-.42.02-.85.02-1.27-3.58-.07-7.15-.16-10.73-.29-.22,6.08-.43,12.15-.65,18.23-.69-.02-1.39-.05-2.08-.08.39-10.05.78-20.09,1.17-30.14.82.48,1.64.95,2.47,1.43,3.21.11,6.42.2,9.63.26"/>
        <path class="cls-1" d="M242.26,31.97c.59-.66,2.48-2.69,5.96-4.73-.53.11-2.16.77-2.4.85-2.03.85-3.02,1.14-5.1,1.27-3.37.19-4.57-.31-5.89-.86-.06-.31-.11-.62-.17-.94,1.3.33,2.49.59,3.94.51,1.87-.1,5.28-.96,6.99-1.53,1.99-.69,3.82-1.34,5.3-1.46,1.7-.13,2.04,1.05,2.06,1.38.06.75-.23.8-1.09.93-2.76.48-6.52,2.73-9.03,5.03-.19-.15-.38-.3-.57-.46M237.28,39.27c-.62,1.04-1.77,2.86-1.65,5.27.12,2.64,2.48,4.12,4.02,4.59,1.93.58,4.57.62,7.15.45,1.25-.08,4.72-.42,6.16-.86.25-.08,1.33-.62,1.59-.65.13,0,3.22-.26,3.3.75.16,1.83-6.53,2.36-8.82,2.5-7.29.5-9.93-.18-11.89-1.47-1.96-1.27-2.82-3.09-2.9-4.82-.12-2.7,1.63-5.23,2.26-6.11.26.12.52.24.78.35M229.66,36.32c-.57,1.39-3.11,7.39-3.59,8.61-.39,1.02-1.7,4.39-1.68,5.1,0,.29.1.39.6,1.22.18.32.28.68.29.97.03.88-.53,1.09-.92,1.1-1.82.06-3.93-4.62-4.08-11.33-.11-4.66.59-7.21,2.09-13.12.15-.52.37-1.54.36-1.74-.01-.39-.74-1.34-2.57-1.56.23-.56.51-.89,1.22-.91,1.69-.04,4.37,2.12,4.41,3.19.02.46-.15.56-.72.9-.52.28-3.5,7.11-3.34,13.75.08,2.87.63,4.25.9,4.93,2.04-3.19,2.51-4.08,6.26-11.32.26.07.51.13.77.2"/>
        <path class="cls-1" d="M283.82,21.99c2.72-.36,4.96-.47,7.59.51,3.2,1.19,4.94,3.46,5.17,4.97.14.9-.24,1.78-.99,1.89-.75.11-.93-.22-1.79-1.78-1.35-2.54-4.91-5.37-9.95-4.78,0-.27-.02-.54-.02-.82M264.23,44.12c3.1,1.31,4.88,2.21,6.31,3.07-.16-.7-.18-.87-.25-1.58-.14-1.36-.43-5.78-.48-6.7-1.93,1.58-4.19,3.5-5.58,5.2M279.18,38.13c.03.65.05,1.14.14,1.89.64,5.4,4.76,6.75,8.07,6.31,6.09-.81,6.98-5.83,6.57-8.69-.63-4.35-4.41-6.89-9.46-6.24-6.02.78-10.18,4.03-13.19,6.32.09,2.45.8,6.7,1.05,8.18.08.38.52,2.04.56,2.36.06.58.23,2.53-1.5,2.71-.43.05-.61-.39-.97-1.37-.62-1.69-6.62-4.67-6.75-4.77-.45.73-1.35,2.15-2.13,2.22-.09,0-1.5.13-1.69-2.04-.09-1.07.12-1.12,1.64-1.42.73-.12,6.93-5.2,8.22-6.2-.18-2.14-.41-5.56-.46-8.07-.29.07-3.91.86-5,.96-2.46.24-4.22-1.93-4.41-2.24.15-.18.3-.35.46-.53,2.05,1.38,3.24,1.5,4.24,1.4.75-.07,3.7-.79,4.64-1.06,0-1.67-.07-2.68-.16-3.49-.15-1.43-.23-2.14-1.96-1.96-.78.08-1.1.24-1.53.48-.04-1.24.77-1.81,1.6-1.9,2.01-.21,4.39.61,4.47,1.39.02.16-.32.89-.35,1.02-.12.8-.18,1.43-.2,3.95,2.62-.68,4.91-1.54,5.54-1.94.27-.16,1.34-1.11,1.67-1.15.41-.05,2.02.02,2.11.76.09.68-.73,1.21-1.29,1.47-.95.48-3.27,1.13-8.02,2.4.04,1.14.13,6.31.16,7.35,4.22-3.17,9.13-5.66,13.3-6.2,4.87-.62,10.94.99,11.92,7.55.63,4.21-1.31,9.7-8.34,10.64-6.03.79-9.32-2.75-9.83-7.11-.17-1.42,0-2.23.13-2.9.25-.03.51-.06.76-.09"/>
        <path class="cls-1" d="M313.06,44.08c6.91-1.1,10.4-3.91,11.19-4.56,4.39-3.54,3.92-7.48,3.14-11.4-.17-.83-.93-3.97-1.45-5.92-4.88,1.37-6.32,1.73-8.97,2.22-2.24.41-3.9.71-6.73-1.08.1-.23.21-.46.31-.68,2.6,1,4.92.58,5.92.39,1.45-.26,5.72-1.2,9.11-2.48-.17-.63-.94-3.83-1.02-4.02-.67-1.89-.79-2.26-2.51-1.93-.86.17-1.34.49-1.76.77-.07-.15-.2-.36-.23-.52-.25-1.31,1.38-1.62,2.31-1.81,3.38-.67,4.38.31,4.47.73.07.32-.11.52-.28.72-.1.12.73,4.87.84,5.38,1.2-.44,2.74-1.06,3.52-1.66.14-.13.71-.71.87-.75.12-.02,1.37.18,1.59.23.57.08,1.03.41,1.12.82.15.69,0,.79-6.75,3.08,1.57,5.6,1.74,6.23,1.94,7.18.59,2.93,1.76,8.48-5.82,12.74-.95.55-4.64,2.59-10.67,3.49-.05-.32-.11-.64-.17-.96M308.54,28.09c-.44,2.33-2.39,12.06-2.23,13.12.02.13.35.8.42.96.12.18.39.76.47,1.28.02.1.16.97-.66,1.1-1.97.32-4.9-3.54-5.75-9.08-.65-4.18-.3-7.5.29-14.16.06-.44.08-1.07.02-1.49-.07-.42-1.14-1.57-3.21-1.41.59-.82.81-1.01,1.34-1.1,2.21-.35,4.9,1.46,5.06,2.42.04.26,0,.3-.47.74-.65.6-2.4,8.47-1.48,14.43.28,1.8.81,3.79,1.88,5.28.05.06.17.24.21.23.07,0,3.31-12.15,3.35-12.47.25.06.51.11.76.17"/>
        <path class="cls-1" d="M340.03,11.92c.3-.02,13.98-4.84,14.64-5.57.18-.15.82-.98.97-1.09.1-.1.25-.2.37-.23.92-.24,3.89,1.07,4.07,1.73.11.41-.09.49-.81.72-.83.29-1.47.82-2.15,1.54-6.13,6.11-9.3,9.52-11.45,11.83,1.66-1.29,5.73-4.45,11.61-5.96,5.07-1.29,11.42,0,13.1,6.03.71,2.57.44,6.3-2.6,9.58-2.23,2.45-6.08,3.99-10.01,4.96-8.56,2.1-12.13-.04-12.68-2.48-.54-2.42,1.54-5.22,5.83-6.25,5.41-1.3,10.31,1.2,11.05,4.07.31,1.2-.28,1.89-1,2.07-.67.17-.64.13-1.48-1.44-1.06-2.05-4.04-4.55-8.88-3.39-1.21.29-4.78,1.46-4.16,4.15.48,2.09,3.51,3.83,10.44,2.13,13.03-3.27,11.57-11.27,11.13-12.9-1.23-4.5-5.76-6.49-11.29-5.09-1.81.47-8.86,2.63-13.91,8.67-1.72,2.03-3.11,3.7-4.06,5.38-.41.72-.72.92-1.14,1.01-.71.15-1.24-.46-1.32-.85-.21-.96.48-1.87,1.66-3.06.29-.29,3.77-4.1,4.52-4.95.61-.55,13.14-14.27,13.44-14.81.07-.08.23-.26.2-.39-.03-.1-.16-.13-.28-.1-.26.12-13.58,5.78-14.9,6.63-.15.1-.72.63-.88.67-.98.22-3.5-1.45-3.85-3.08-.24-1.08.29-1.6.73-2.07.11.51.88,3.01,3.08,2.51"/>
      </g>
      <g>
        <path class="cls-1" d="M15.28,35.91c-.11.37,0,.58.52.88,1.14.69,1.62,1.41,1.38,2.19-.27.9-1.38,1.32-2.58.95-1.67-.51-2.65-2.01-2.22-3.41.48-1.55,2.17-2.63,4.63-2.93.96-.11,1.83-.09,2.34.07.21.06.36.18.34.27-.03.09-.14.16-.28.15-2.03,0-3.81.78-4.13,1.84M7.96,33.68c-.11.34.02.52.58.83,1.11.63,1.56,1.42,1.32,2.2-.28.9-1.36,1.32-2.51.95-1.75-.56-2.7-2-2.22-3.45.42-1.3,1.66-2.23,3.57-2.65,1.21-.29,2.71-.33,3.43-.11.21.07.36.18.32.31-.03.09-.13.13-.27.12-2.02-.09-3.85.69-4.21,1.81"/>
        <path class="cls-1" d="M52.19,58.97c1.35.32,2.69.64,4.04.95.66-.46,1.32-.92,1.98-1.38.67.72,1.63,1.98,2.26,2.88-.13.17-.26.34-.39.51-2.72-.61-5.44-1.24-8.15-1.89-.52,2.19-1.04,4.37-1.57,6.56-.48,2-1.25,2.86-4.9,2.13-.06-.72-.11-1.46-3.56-2.43.08-.27.17-.54.25-.81,1.16.46,3.16,1.13,4.59,1.47,1.16.28,1.25.1,1.49-.88.53-2.18,1.06-4.37,1.59-6.55-2.65-.64-5.3-1.3-7.95-1.98.09-.36.18-.72.27-1.07,2.64.67,5.29,1.33,7.93,1.97.28-1.17.57-2.34.85-3.51.57.33,1.14.65,1.7.98.82-.34,2.77-1.18,4.01-1.96-3.5-.82-6.99-1.67-10.48-2.54.03-.37.07-.74.1-1.12,3.64.92,7.29,1.8,10.94,2.65.64-.31,1.27-.62,1.91-.93,1.42,1.56,2.08,2.94,2.03,3.14-.06.26-.49.16-.67.12-.17-.04-1.08-.31-1.25-.35-1.15.41-3.79,1.3-6.49,1.73-.18.77-.37,1.54-.55,2.31M24.87,35.76c1.83,1.46,5.62,4.33,4.88,6.99-.08.28-.45,1.26-1.31,1.02-.6-.17-.64-.35-1.16-2.12-.72-2.68-2.52-4.59-3.21-5.37.27-.17.53-.34.8-.51M57.95,73.48c-1.12-.05-1.53.09-1.91.94-6.45-1.16-13.41-2.84-16.18-3.55-7.79-1.99-10.66-3.27-13.29-5.71-1.45-1.35-2.56-3.01-2.69-4.88-.58.38-1.88,1.26-3.22,1.93-2.46,1.22-2.74,1.34-3.08,1.52-.22.75-.31,1.06-.66.96-.27-.08-.41-.42-.45-.61-.24-.78-.47-1.56-.71-2.35,2.12-.33,4.61-1,6.65-1.8.98-3.45,1.96-6.89,2.95-10.34-1.4-.4-2.81-.81-4.21-1.21-.34-.06-.69-.11-1.03-.17,0-.47,0-.93-.01-1.4.44.19.89.38,1.34.56,1.18.35,2.37.69,3.55,1.03.68-.43,1.37-.85,2.05-1.28.63.72,2.28,3.18,2.19,3.53-.07.25-.53.22-1.9-.06-.86,3.05-1.72,6.1-2.58,9.15,0,.51,0,.71.2,1.31,5.45-3.31,7.53-7.42,9.99-16.13-1.59-.43-3.18-.87-4.77-1.32.1-.36.2-.71.3-1.07,2.03.57,4.06,1.13,6.1,1.68.44-1.64.88-3.27,1.32-4.91.87.28,1.74.56,2.61.83.5.17,1.31.41,1.21.79-.11.44-.79.4-2.15.34-.31,1.17-.62,2.33-.93,3.49,1.08.29,2.15.57,3.23.85.66-.47,1.32-.94,1.97-1.41,1.4,1.67,1.71,2.29,2.07,3.02-.15.15-.29.31-.44.46-2.84-.72-5.67-1.46-8.5-2.22-.85,2.98-1.25,4.15-1.52,4.99,1.51.4,3.01.8,4.52,1.2.51-.31,1.03-.63,1.54-.95.36.4.46.56.84,1.06,3.59-2.78,7.4-7.64,7.97-9.38.92.5,1.85.99,2.77,1.49.36.19.83.54.76.82-.1.41-.32.36-2.14-.02-.7,1-1.02,1.36-1.89,2.32,2.93.72,5.87,1.43,8.81,2.11.68-.47,1.37-.93,2.05-1.4.22.22,1.49,1.61,2.34,2.9-.19.17-.38.34-.57.5-4.51-1.02-9.01-2.08-13.5-3.2-1.6,1.65-4.03,3.43-6.05,4.62.1.16.53.84.5.94-.06.22-.5.14-1.44,0-.29,1.13-2.19,8.18-4.52,10.94-1.49,1.73-3.56,1.26-5.34.81.03-.63.09-1.39-3.1-2.63.12-.26.24-.52.36-.78,1.33.7,3.95,1.74,4.48,1.88.89.23,1.66.17,2.57-1.31,2.05-3.3,3.48-8.85,3.63-9.42.01-.05.03-.1.04-.16-1.68-.44-3.37-.88-5.05-1.33-2.17,5.28-4.53,7.96-9.64,10.39,2.55,3.83,8.61,5.54,14.36,7,4.59,1.19,14.61,3.44,18.42,3.88-.07.24-.14.48-.21.72"/>
        <path class="cls-1" d="M102.64,52.69c3.99,3.41,3.86,5.26,3.72,6.1-.08.51-.41,1.52-1.42,1.36-.74-.12-.76-.28-.89-2.05-.06-.47-.21-2.64-2.09-5.05.23-.12.45-.24.68-.35M98.43,52.79c2.41,2.35,3.09,4.84,2.86,6.25-.2,1.22-1,1.46-1.48,1.38-.88-.14-.81-.83-.75-1.74.07-1.77-.32-3.75-1.27-5.5.22-.13.43-.26.64-.39M69.51,50.68c2.08.47,10.71.16,10.99.1.18-.03.28-.04,1.27-.51.15-.07.28-.04.49,0,.39.08,2.68.75,2.53,1.55-.13.67-.49.7-1.89.73-3.81.12-13.67,4.79-15.54,13.37-1.04,4.84,1.21,7.25,3.88,8.86,2.71,1.65,5.54,2.27,6.39,2.43,12.21,2.31,14.05-8.44,14.57-11.43.69-3.98.94-9.03.22-10.78-.12-.32-1-1.7-.95-1.99.09-.51,1.07-1.26,2.33-1.04.56.1.57.33.58,2.58.05,5.04,4.09,11.71,6.66,13.36,1.28.83,2.48,1.61,2.3,2.77-.07.48-.8.77-1.34.68-1.97-.31-4.95-4.99-5.89-6.87-.95-1.91-1.7-4.92-2.14-6.75.37,4.86-.26,8.58-.45,9.71-.93,5.42-2.56,8.75-6.4,10.72-3.79,1.91-7.68,1.37-9.85.95-5.8-1.1-13.81-4.71-11.92-13.31,1.07-4.93,4.81-8.39,8.46-10.73,2.93-1.86,5.33-2.64,7.36-3.31-1.14.13-10.27.82-11.07,1.1-.5.19-1.09.43-1.35.38-1.52-.33-2.18-2.74-1.84-4.27.11-.51.47-1.73,2.11-1.58-.2.72-.79,3,.51,3.28"/>
        <path class="cls-1" d="M120.62,57.18c.12-.9,1.17-1.52,2.3-1.37,1.7.22,2.95,1.52,2.77,2.98-.17,1.36-1.2,2.51-2.95,3.31-1.14.51-2.66.84-3.4.74-.26-.04-.43-.12-.41-.25.02-.13.07-.16.66-.27,1.69-.27,3.27-1.41,3.39-2.42.05-.35-.07-.5-.62-.74-.21-.06-.25-.1-.38-.18-1.05-.5-1.46-1.05-1.36-1.79M114.71,58.77c.05-.36-.11-.51-.65-.75-.21-.06-.25-.1-.38-.19-1.04-.48-1.44-1.1-1.34-1.84.13-.87,1.19-1.47,2.36-1.31,1.69.24,2.88,1.59,2.68,3.04-.18,1.32-1.18,2.44-2.9,3.18-1.19.52-2.76.86-3.47.75-.26-.04-.43-.13-.41-.26.01-.1.11-.15.25-.19,2.01-.26,3.68-1.35,3.84-2.44"/>
        <path class="cls-1" d="M128.25,74.02c-.72,6.08,2.29,7.84,2.92,7.91,1,.11,3.65-1.47,6.24-4.57,5.27-6.31,7.38-11.62,7.63-14.18.08-.81-.06-1.28-.63-2.22-6.61.11-15.07,4.11-16.15,13.06M139.87,87.03c9.87.9,22.45-.23,23.17-12.18.27-4.29-1.13-6.79-3.54-9.05-3.41-3.18-7.5-4.35-11.88-4.74-1.09-.1-1.85-.1-2.51-.13.72.75,1.81,1.93,1.67,3.52-.26,3.48-8.84,19.65-15.72,18.88-1.41-.16-1.68-.58-2.62-1.97-.19-.32-1.34-1.5-1.53-1.79-1.36-2.03-1.06-5.25-.96-6.05,1.12-8.83,10.76-14.56,22.6-13.52,7.98.73,17.72,5.05,17.14,15.51-.48,8.33-7.47,11.18-9.59,11.83-4.41,1.38-10.18,1.49-16.21.9,0-.4-.01-.81-.02-1.21"/>
        <path class="cls-1" d="M170.61,89.68c8.6-2.1,15.56-6.87,18.69-9.73,3.1-2.85,7.66-8.78,9.2-13.92-3.42.1-25.95,1.03-26.99,1.09-.23.05-.96.54-1.18.53-1.2-.06-3.71-2.53-3.61-4.28.04-.68.4-.89.99-1.12.11,1.15,1.11,2.12,1.36,2.33.38.31.6.33,2.63.43,1.37.17,22.06.17,25.71-.16.22-.19,1.2-1.03,1.42-1.19.09-.06.18-.06.22-.06.57,0,3.94,2.89,3.94,3.35,0,.39-1.46.45-2.08.48-7.02,16.75-22.32,21.44-29.76,23.2-.18-.31-.37-.63-.55-.94"/>
        <path class="cls-1" d="M217.42,75.23c0,.13-.21.75-.25.89-.16.78-.15,1.79-.12,8.44,6.98-.43,8.24-.56,9.06-.71.23-.07,1.26-.5,1.35-.5.18,0,3.73.36,3.78,1.46.02.46-.34.73-.97.76-.41.02-2.37-.21-2.78-.23-.68-.01-1.23,0-2.14.04-5.49.2-17.35.95-19.63,1.45-.23.07-1.05.49-1.23.49-.96,0-2.86-2.13-2.85-3.07,0-.52.32-.85.78-1.23.04.36.63,2.06,2.31,2.06.46.02,8.9-.33,10.53-.4.02-1.99.02-4.72.01-5.08-.02-1.3-.08-5.05-.63-5.92-.36.01-4.95.39-5.93.65-.18.07-.89.52-1.07.53-.67,0-2.86-1.69-2.86-3.02,0-.62.18-.78.76-1.17.13.59.49,2.12,2.27,2.11,1.92.02,13.14-.68,14.2-.86.27-.04,1.37-.56,1.59-.57.53-.01,3.43.25,3.47,1.2.02.62-.69.64-1.01.65-.4.01-2.19-.06-2.54-.05-1.92.06-7.62.47-7.84.47.49.29,1.76.98,1.77,1.66"/>
        <path class="cls-1" d="M233.63,89.14c3.78-1.39,11.25-4.41,17.91-10.7,3.11-2.92,8.36-9.1,10.26-14.57-1.12.28-19.52,2.65-21.05,3.14-.04,0-.55.39-.59.46-.17.14-.39.18-.52.19-1.33.07-4.15-2.37-4.23-4.06-.03-.62.57-1,1.08-1.32.06.35.13.88.97,1.78.79.91,1.2,1.02,2.43.95,3.71-.13,19.28-1.95,21.63-2.38.16-.15.77-.82.93-.97.08-.1.24-.25.46-.27.48-.04,3.66,2.28,3.71,2.7.04.42-1.81.63-2.38.68-.75,1.57-2.75,5.88-7.3,10.92,9.18,2.83,15.77,7.66,16.03,10.16.12,1.17-.63,1.5-.95,1.54-.64.06-1.25-.47-2.38-1.76-4.45-5.12-10.66-8-13.41-9.16-.74.79-8.23,9.2-22.05,13.5-.18-.27-.36-.55-.54-.82"/>
        <path class="cls-1" d="M277.01,59.18c1.43.89,2.44,1.2,4.5.96,4.25-.49,12.56-2.59,14.35-3.42.16-.09.91-.76,1.13-.79.35-.05,2-.03,2.53-.04.67,0,1.26.08,1.34.66.12.77-1.25,1.18-2.58,1.57-2.09.63-12.48,2.95-16.17,3.36-3.2.38-4.66-.74-5.59-1.49.16-.27.32-.54.48-.81M278.66,86.69c2.33-1.03,8.77-4.06,11.2-9.97,1.5-3.61,1.37-6.58,1.24-7.55-.1-.78-.26-.92-.53-1.28-5.94,1.15-11.99,2.16-14.58,3.2-.22.09-1.01.67-1.23.69-1.38.15-3.75-1.87-3.92-3.59-.08-.81.51-1.2.92-1.47.09.42.31,1.28,1.25,2.16.34.29.76.41,1.96.28.46.05,20.49-3.45,21.83-3.8,6.75-1.33,7.49-1.51,7.91-1.67.22-.07,1.06-.76,1.28-.79.48-.07,3.13.1,3.82.18.65.09,1.26.26,1.36.87.11.68-.3.94-.92,1.04-.44.07-2.82.22-3.35.27-1.79.15-4.66.59-5.32.68-2.92.43-5.25.87-9.47,1.67,1,.36,2.34.93,2.41,1.42.06.42-.46.59-.85.74-.11,3.23-.27,12.26-14.27,17.75-.25-.28-.49-.56-.74-.84"/>
        <path class="cls-1" d="M306.12,75.41c11.93-5.46,20.37-15.6,20.17-16.51-.06-.32-.88-1.06-2.33-1.09.22-.27.64-.71,1.07-.8,1.18-.22,4.55,1.29,4.74,2.28.05.26-.09.48-.61.58-.17.03-.49.03-.54.04-1.12,1.31-3.26,3.88-7.36,7.3.68.21,1.38.54,1.49,1.12.02.13-.11.65-.13.79-.01.7.49,3.49.64,4.32.17.96.52,2.85.76,3.67.26.91.37,1.26.52,2.09.2,1.09-.6,1.33-.74,1.36-.68.12-1.52-1.71-1.6-2.16-.03-.19-.05-.26.02-.96.02-.67-.42-3.13-.57-3.97-.21-1.15-.87-4.91-1.34-5.48-6.13,4.69-10.98,7-13.56,8.16-.21-.24-.41-.49-.62-.73"/>
        <path class="cls-1" d="M361.14,43.92c3.27.69,5.84,2.08,6.26,3.72.23.88-.14,1.42-.66,1.55-.78.2-1.33-.5-1.67-.95-1.67-2.23-3.59-3.16-4.57-3.59.21-.24.43-.49.64-.73M356.3,47.25c2.61.45,6.12,1.82,6.64,3.87.22.89-.13,1.34-.61,1.46-.7.17-.95-.1-1.95-1.19-.39-.44-1.79-2.04-4.68-3.42.2-.24.4-.48.6-.71M349.81,51.29c8.33,2.12,19.02,9.51,20.04,13.38.4,1.55-.26,1.95-.66,2.05-.98.25-1.76-.6-2.2-1.23-5.74-7.82-13.32-11.63-17.67-13.32.16-.29.32-.59.48-.88M330.74,74.83c6.46-6.54,10.01-17.68,9.7-19.04-.09-.42-1.38-1.1-3.52-.69.1-.42.25-1.21,1.6-1.5,1.39-.29,5.23.65,5.51,1.88.08.35-.26.49-.92.8-3.19,11-9.39,17.32-11.45,19.17-.3-.21-.61-.41-.91-.62"/>
        <path class="cls-1" d="M407.52,41.76c-1.18,5.75-3.03,11.89-10.47,18.55-.42.37-2.79,2.12-2.94,2.43-.05.15-.2.81-.21.94-.1.3-.24.51-.46.57-.62.18-2.62-1.58-2.78-2.11-.05-.19.11-1.12.1-1.32-.16-1.21-.34-2.65-4.13-15.73-.31-1.06-1.55-5.52-2.12-6.03-.84-.81-2.97-.37-4.15-.14.05-.49.14-1.29,1.25-1.61,2.04-.58,5.98-.38,6.29.68.07.25,0,.31-.31.67-.18.19-.31.36-.19.94.93,4.11,4.7,17.8,5.66,21.08,4.16-2.69,11.52-9.83,13.38-19.12.35.06.7.11,1.05.17M371.79,69.86c6.64-7.23,7.61-14.87,4.88-24.85-.26-.94-1.17-1.23-3.83-.68.16-.78.35-1.27,1.33-1.54,2.44-.66,5.37.25,5.6,1.06.05.19-.08.36-.59.88-.14.14.84,5.55.99,6.59,1.15,7.83-2.94,14.97-7.55,19.17-.28-.21-.55-.42-.83-.63"/>
      </g>
    </g>
    <g id="copy-2" data-name="copy">
      <g>
        <path class="cls-2" d="M84.09,14.92c-1.82,8.98-3.65,17.96-5.47,26.94-.68-.14-1.36-.28-2.05-.42,2.02-9.79,4.04-19.59,6.07-29.38.87.66,1.74,1.31,2.61,1.96,2.54.51,5.08,1.01,7.63,1.49.63-.44,1.27-.89,1.9-1.34.81.85,2.39,3.05,2.33,3.44-.05.26-1.52,0-2.1-.08-3.61,3.87-3.77,4.07-7.58,7.32,4.04,2.91,7.23,5.83,6.4,10.44-.99,5.55-6.91,4.69-8.8,4.39,0-1.16-.45-1.31-4.42-2.63.08-.32.16-.63.23-.95,2.88.98,5.09,1.4,5.38,1.46,1.44.28,4.71.89,5.42-2.99.73-3.97-2.07-6.41-4.93-8.99-.65-.63-.65-.86-.62-.99.04-.19.11-.34.59-.81.87-.89,4.23-4.55,6.07-7.16-2.89-.54-5.78-1.11-8.66-1.69M58.91,34.52c3.87.92,7.75,1.8,11.64,2.65.35-1.6.7-3.2,1.05-4.81-3.85-.84-7.7-1.71-11.54-2.63-.38,1.6-.76,3.19-1.14,4.79M60.31,28.66c3.84.91,7.68,1.78,11.52,2.62.32-1.45.63-2.91.95-4.36-3.82-.83-7.64-1.7-11.44-2.6-.34,1.45-.69,2.9-1.03,4.34M74.2,24.36c1.15,1.51,2.22,2.84,2.17,3.06-.04.19-1.24.1-1.67.08-.91,4.24-1.81,8.47-2.72,12.71-.67-.14-1.33-.29-2-.43.11-.51.22-1.02.33-1.53-3.89-.85-7.78-1.73-11.65-2.65-.14.59-.28,1.18-.42,1.77-.66-.16-1.33-.32-1.99-.48.97-4.02,1.94-8.04,2.91-12.07-2.3.62-3.51.82-4.67,1.04-.12-.29-.24-.57-.36-.86,6.91-1.67,11.35-3.97,12.99-4.86-3.04-.7-6.07-1.42-9.1-2.16-.49-.1-.97-.19-1.45-.29-.03-.48-.05-.95-.08-1.43.83.28,1.67.55,2.5.82,2.04.5,4.08.99,6.12,1.46.37-1.6.74-3.19,1.12-4.79-2.04-.48-4.08-.96-6.11-1.46-.38-.08-.77-.17-1.15-.25-.01-.47-.03-.94-.04-1.42.74.26,1.48.52,2.22.78,1.78.43,3.55.85,5.33,1.27.34-1.47.69-2.94,1.03-4.41.92.26,1.84.52,2.76.77.28.07.91.31.83.66-.08.35-.72.37-1.93.26-.24,1.06-.49,2.12-.73,3.18.69.16,1.38.32,2.08.47.55-.43,1.11-.86,1.66-1.3,1.24,1.71,1.35,1.84,1.78,2.76-.12.12-.25.23-.38.35-1.8-.4-3.6-.8-5.39-1.22-.37,1.6-.73,3.2-1.1,4.79.49.11.99.23,1.48.34,4.58-2.8,8.09-6.21,9.54-8.24.79.62,1.57,1.25,2.36,1.87.22.18.51.41.44.72-.06.29-.47.2-.63.17-.16-.04-.61-.16-1.14-.44-1.02,1.01-3.84,3.85-8.22,6.44,1.4.31,2.8.62,4.2.92.65-.54,1.3-1.08,1.94-1.62,1.44,1.94,1.68,2.25,2.07,3.07-.17.14-.35.28-.52.42-3.05-.64-6.09-1.3-9.13-1.98-2.83,1.57-4.88,2.33-6.42,2.9,3.1.73,6.2,1.43,9.3,2.11.62-.44,1.24-.89,1.86-1.33"/>
        <path class="cls-2" d="M129.79,30.17c.62-.51,1.23-1.03,1.84-1.55,1.2.93,2.69,2.65,2.65,3-.03.29-1.42.16-2.01.13-.46,3.86-.92,7.72-1.38,11.58-.25,2.1-.46,3.93-5.63,3.41-.11-1.2-.19-1.29-5.61-2.71.08-.29.17-.59.25-.89.25.07,4.49,1.2,6.62,1.46,2.01.25,2.12.06,2.29-1.36.48-3.97.97-7.93,1.45-11.9-4.14-.51-8.28-1.05-12.41-1.64-.88,6.17-1.76,12.34-2.64,18.51-.69-.1-1.38-.2-2.06-.3.9-6.17,1.8-12.33,2.7-18.5-3.98-.58-7.95-1.2-11.92-1.86-.91,5.45-1.81,10.9-2.72,16.36-.68-.11-1.37-.23-2.05-.34,1.07-6.28,2.13-12.57,3.19-18.85.79.62,1.58,1.24,2.38,1.85,3.75.62,7.51,1.2,11.27,1.75.23-1.59.46-3.18.7-4.77.89.17,1.78.35,2.67.51.49.1,1.15.23,1.1.62-.06.42-.75.52-1.97.51-.16,1.14-.32,2.28-.49,3.42,3.92.56,7.84,1.08,11.76,1.56M132.92,24.55c.65-.63,1.3-1.27,1.94-1.9.72.64,2.21,2.22,2.76,2.97-.12.18-.24.37-.36.55-11.95-1.33-23.87-3.02-35.75-5.07-.82-.06-1.65-.13-2.47-.2,0-.51,0-1.01.01-1.52.98.23,1.95.45,2.93.68,4.96.85,9.93,1.64,14.91,2.37.23-1.57.46-3.14.69-4.71.95.18,1.9.36,2.85.54.65.12,1.47.27,1.4.75-.08.61-1.34.6-2.5.54-.15,1.05-.3,2.11-.45,3.16,4.67.67,9.36,1.28,14.04,1.84"/>
        <path class="cls-2" d="M163.45,34.17c-.04.62-.05.81.74.93.75.09,4.74.4,5.84.46,4.16.23,4.51.07,4.75-.5.19-.38.49-1.44.96-3.31.25.01.5.02.75.04-.03.55-.18,3.02-.17,3.55.75.16,1.46.33,1.43,1.01-.03.59-.63.85-1.31.92-.85.09-4.44.11-6.51,0-8.3-.49-8.68-.63-8.52-2.89.17-2.33.33-4.66.49-6.99-2.5-.18-5.01-.37-7.51-.58-2.46,7.49-5.98,9.87-16.26,10.25-.09-.34-.18-.67-.27-1.01,8.76-.57,12.47-2.83,14.34-9.43-2.75-.24-5.5-.5-8.25-.77-.53,2.34-2.09,4.44-4.26,4.21-.75-.08-1.16-.62-1.1-1.13.08-.78.61-.95,2.26-1.49,2.05-.67,2.3-3.23,2.42-4.4.29.03.58.06.87.09.02.59,0,.82-.04,1.63,4.38.44,8.77.83,13.16,1.18.1-1.27.2-2.53.3-3.8.98.14,1.96.28,2.95.42.29.05.9.13.87.52-.03.39-.54.55-1.96.67-.06.78-.12,1.56-.18,2.34,4.5.34,9,.63,13.51.87.67-.58,1.33-1.17,2-1.76,1.38,1.34,2.88,3.24,2.86,3.59,0,.2-.3.18-.47.17-.38-.02-.83-.14-1.4-.29-.61.62-2.9,2.99-5.45,4.9-.22-.14-.43-.29-.65-.43,1.36-1.68,2.26-2.97,3.42-5.07-3.06-.16-6.12-.34-9.18-.55-.15,2.22-.3,4.44-.45,6.66M157.4,50.68c4.83.36,9.65.67,14.49.93.61-.72,1.23-1.44,1.84-2.16,1.24,1.07,1.9,1.79,2.92,3.04-.15.16-.3.31-.46.47-12.66-.58-25.32-1.53-37.94-2.87-.58,0-1.16-.01-1.74-.02-.17-.58-.34-1.15-.51-1.73.85.21,1.69.42,2.54.63,5.59.59,11.19,1.11,16.79,1.55.24-3.09.49-6.17.73-9.26-4.43-.35-8.86-.75-13.28-1.19-.55-.02-1.11-.05-1.66-.07-.12-.48-.24-.96-.37-1.45.73.14,1.45.28,2.18.42,8.86.89,17.73,1.58,26.61,2.09.59-.67,1.18-1.35,1.77-2.02,1.14.94,2.11,1.87,3.04,2.8-.15.19-.3.38-.45.56-5.27-.26-10.54-.59-15.8-.99-.23,3.09-.47,6.17-.7,9.26"/>
        <path class="cls-2" d="M203.49,31.17c0,1.27,0,2.54-.01,3.81,3.65,0,7.31-.01,10.96-.07-.02-1.27-.04-2.54-.06-3.81-3.63.06-7.26.08-10.89.07M203.5,26.61c0,1.15,0,2.3,0,3.45,3.62,0,7.25-.01,10.87-.07-.02-1.15-.03-2.3-.05-3.45-3.6.05-7.21.08-10.81.07M191.3,50.37c4.73.1,9.47.15,14.21.15,0-1.46,0-2.91,0-4.36-4.7,0-9.41-.05-14.11-.15-.03,1.46-.06,2.91-.09,4.36M191.42,44.9c4.69.1,9.39.15,14.08.15,0-1.32,0-2.65,0-3.97-4.66,0-9.33-.05-13.99-.15-.03,1.32-.06,2.65-.09,3.97M215.14,23.93c1.63,1.31,2.65,2.39,2.65,2.59,0,.16-.12.17-1.53.26.15,8.14.3,16.28.45,24.43.04,2.02-.51,2.88-4.58,3.29-.31-.91-.4-1.16-4.56-1.66,0,.09,0,.17,0,.26-.69,0-1.38,0-2.08,0v-1.46c-4.74,0-9.49-.05-14.23-.15-.01.65-.03,1.3-.04,1.95-.69-.01-1.38-.03-2.08-.05.13-4.99.25-9.99.38-14.98.85.48,1.7.95,2.55,1.43,4.29.09,8.58.14,12.87.14.46-.49.93-.98,1.39-1.47.76.49,2.72,2.14,2.72,2.4,0,.16-.72.3-1.53.43.01,3.52.03,7.04.04,10.55,1.47.16,3.28.34,5.27.32,1.77-.02,1.86-.03,1.84-1.07-.08-5.04-.15-10.08-.23-15.11-3.66.06-7.32.08-10.98.07,0,.47,0,.93,0,1.4-.67,0-1.35,0-2.02,0,.03-4.46.05-8.93.08-13.39.77.47,1.54.94,2.31,1.41,3.34,0,6.67-.01,10-.06.43-.51.87-1.01,1.3-1.52M183.12,34.59c3.57.13,7.14.22,10.7.29.02-1.27.05-2.54.07-3.81-3.55-.07-7.09-.16-10.64-.29-.05,1.27-.09,2.54-.14,3.81M183.29,29.68c3.54.13,7.08.22,10.62.29.02-1.15.04-2.3.06-3.45-3.52-.06-7.04-.16-10.56-.29-.04,1.15-.08,2.3-.12,3.45M193.62,25.4c.4-.48.79-.96,1.18-1.44.53.47,2.57,2.22,2.57,2.51,0,.23-.96.35-1.41.34-.05,3.5-.1,6.99-.16,10.49-.67,0-1.35-.02-2.02-.03,0-.42.02-.85.02-1.27-3.58-.07-7.15-.16-10.73-.29-.22,6.08-.43,12.15-.65,18.23-.69-.02-1.39-.05-2.08-.08.39-10.05.78-20.09,1.17-30.14.82.48,1.64.95,2.47,1.43,3.21.11,6.42.2,9.63.26"/>
        <path class="cls-2" d="M242.26,31.97c.59-.66,2.48-2.69,5.96-4.73-.53.11-2.16.77-2.4.85-2.03.85-3.02,1.14-5.1,1.27-3.37.19-4.57-.31-5.89-.86-.06-.31-.11-.62-.17-.94,1.3.33,2.49.59,3.94.51,1.87-.1,5.28-.96,6.99-1.53,1.99-.69,3.82-1.34,5.3-1.46,1.7-.13,2.04,1.05,2.06,1.38.06.75-.23.8-1.09.93-2.76.48-6.52,2.73-9.03,5.03-.19-.15-.38-.3-.57-.46M237.28,39.27c-.62,1.04-1.77,2.86-1.65,5.27.12,2.64,2.48,4.12,4.02,4.59,1.93.58,4.57.62,7.15.45,1.25-.08,4.72-.42,6.16-.86.25-.08,1.33-.62,1.59-.65.13,0,3.22-.26,3.3.75.16,1.83-6.53,2.36-8.82,2.5-7.29.5-9.93-.18-11.89-1.47-1.96-1.27-2.82-3.09-2.9-4.82-.12-2.7,1.63-5.23,2.26-6.11.26.12.52.24.78.35M229.66,36.32c-.57,1.39-3.11,7.39-3.59,8.61-.39,1.02-1.7,4.39-1.68,5.1,0,.29.1.39.6,1.22.18.32.28.68.29.97.03.88-.53,1.09-.92,1.1-1.82.06-3.93-4.62-4.08-11.33-.11-4.66.59-7.21,2.09-13.12.15-.52.37-1.54.36-1.74-.01-.39-.74-1.34-2.57-1.56.23-.56.51-.89,1.22-.91,1.69-.04,4.37,2.12,4.41,3.19.02.46-.15.56-.72.9-.52.28-3.5,7.11-3.34,13.75.08,2.87.63,4.25.9,4.93,2.04-3.19,2.51-4.08,6.26-11.32.26.07.51.13.77.2"/>
        <path class="cls-2" d="M283.82,21.99c2.72-.36,4.96-.47,7.59.51,3.2,1.19,4.94,3.46,5.17,4.97.14.9-.24,1.78-.99,1.89-.75.11-.93-.22-1.79-1.78-1.35-2.54-4.91-5.37-9.95-4.78,0-.27-.02-.54-.02-.82M264.23,44.12c3.1,1.31,4.88,2.21,6.31,3.07-.16-.7-.18-.87-.25-1.58-.14-1.36-.43-5.78-.48-6.7-1.93,1.58-4.19,3.5-5.58,5.2M279.18,38.13c.03.65.05,1.14.14,1.89.64,5.4,4.76,6.75,8.07,6.31,6.09-.81,6.98-5.83,6.57-8.69-.63-4.35-4.41-6.89-9.46-6.24-6.02.78-10.18,4.03-13.19,6.32.09,2.45.8,6.7,1.05,8.18.08.38.52,2.04.56,2.36.06.58.23,2.53-1.5,2.71-.43.05-.61-.39-.97-1.37-.62-1.69-6.62-4.67-6.75-4.77-.45.73-1.35,2.15-2.13,2.22-.09,0-1.5.13-1.69-2.04-.09-1.07.12-1.12,1.64-1.42.73-.12,6.93-5.2,8.22-6.2-.18-2.14-.41-5.56-.46-8.07-.29.07-3.91.86-5,.96-2.46.24-4.22-1.93-4.41-2.24.15-.18.3-.35.46-.53,2.05,1.38,3.24,1.5,4.24,1.4.75-.07,3.7-.79,4.64-1.06,0-1.67-.07-2.68-.16-3.49-.15-1.43-.23-2.14-1.96-1.96-.78.08-1.1.24-1.53.48-.04-1.24.77-1.81,1.6-1.9,2.01-.21,4.39.61,4.47,1.39.02.16-.32.89-.35,1.02-.12.8-.18,1.43-.2,3.95,2.62-.68,4.91-1.54,5.54-1.94.27-.16,1.34-1.11,1.67-1.15.41-.05,2.02.02,2.11.76.09.68-.73,1.21-1.29,1.47-.95.48-3.27,1.13-8.02,2.4.04,1.14.13,6.31.16,7.35,4.22-3.17,9.13-5.66,13.3-6.2,4.87-.62,10.94.99,11.92,7.55.63,4.21-1.31,9.7-8.34,10.64-6.03.79-9.32-2.75-9.83-7.11-.17-1.42,0-2.23.13-2.9.25-.03.51-.06.76-.09"/>
        <path class="cls-2" d="M313.06,44.08c6.91-1.1,10.4-3.91,11.19-4.56,4.39-3.54,3.92-7.48,3.14-11.4-.17-.83-.93-3.97-1.45-5.92-4.88,1.37-6.32,1.73-8.97,2.22-2.24.41-3.9.71-6.73-1.08.1-.23.21-.46.31-.68,2.6,1,4.92.58,5.92.39,1.45-.26,5.72-1.2,9.11-2.48-.17-.63-.94-3.83-1.02-4.02-.67-1.89-.79-2.26-2.51-1.93-.86.17-1.34.49-1.76.77-.07-.15-.2-.36-.23-.52-.25-1.31,1.38-1.62,2.31-1.81,3.38-.67,4.38.31,4.47.73.07.32-.11.52-.28.72-.1.12.73,4.87.84,5.38,1.2-.44,2.74-1.06,3.52-1.66.14-.13.71-.71.87-.75.12-.02,1.37.18,1.59.23.57.08,1.03.41,1.12.82.15.69,0,.79-6.75,3.08,1.57,5.6,1.74,6.23,1.94,7.18.59,2.93,1.76,8.48-5.82,12.74-.95.55-4.64,2.59-10.67,3.49-.05-.32-.11-.64-.17-.96M308.54,28.09c-.44,2.33-2.39,12.06-2.23,13.12.02.13.35.8.42.96.12.18.39.76.47,1.28.02.1.16.97-.66,1.1-1.97.32-4.9-3.54-5.75-9.08-.65-4.18-.3-7.5.29-14.16.06-.44.08-1.07.02-1.49-.07-.42-1.14-1.57-3.21-1.41.59-.82.81-1.01,1.34-1.1,2.21-.35,4.9,1.46,5.06,2.42.04.26,0,.3-.47.74-.65.6-2.4,8.47-1.48,14.43.28,1.8.81,3.79,1.88,5.28.05.06.17.24.21.23.07,0,3.31-12.15,3.35-12.47.25.06.51.11.76.17"/>
        <path class="cls-2" d="M340.03,11.92c.3-.02,13.98-4.84,14.64-5.57.18-.15.82-.98.97-1.09.1-.1.25-.2.37-.23.92-.24,3.89,1.07,4.07,1.73.11.41-.09.49-.81.72-.83.29-1.47.82-2.15,1.54-6.13,6.11-9.3,9.52-11.45,11.83,1.66-1.29,5.73-4.45,11.61-5.96,5.07-1.29,11.42,0,13.1,6.03.71,2.57.44,6.3-2.6,9.58-2.23,2.45-6.08,3.99-10.01,4.96-8.56,2.1-12.13-.04-12.68-2.48-.54-2.42,1.54-5.22,5.83-6.25,5.41-1.3,10.31,1.2,11.05,4.07.31,1.2-.28,1.89-1,2.07-.67.17-.64.13-1.48-1.44-1.06-2.05-4.04-4.55-8.88-3.39-1.21.29-4.78,1.46-4.16,4.15.48,2.09,3.51,3.83,10.44,2.13,13.03-3.27,11.57-11.27,11.13-12.9-1.23-4.5-5.76-6.49-11.29-5.09-1.81.47-8.86,2.63-13.91,8.67-1.72,2.03-3.11,3.7-4.06,5.38-.41.72-.72.92-1.14,1.01-.71.15-1.24-.46-1.32-.85-.21-.96.48-1.87,1.66-3.06.29-.29,3.77-4.1,4.52-4.95.61-.55,13.14-14.27,13.44-14.81.07-.08.23-.26.2-.39-.03-.1-.16-.13-.28-.1-.26.12-13.58,5.78-14.9,6.63-.15.1-.72.63-.88.67-.98.22-3.5-1.45-3.85-3.08-.24-1.08.29-1.6.73-2.07.11.51.88,3.01,3.08,2.51"/>
      </g>
      <g>
        <path class="cls-2" d="M15.28,35.91c-.11.37,0,.58.52.88,1.14.69,1.62,1.41,1.38,2.19-.27.9-1.38,1.32-2.58.95-1.67-.51-2.65-2.01-2.22-3.41.48-1.55,2.17-2.63,4.63-2.93.96-.11,1.83-.09,2.34.07.21.06.36.18.34.27-.03.09-.14.16-.28.15-2.03,0-3.81.78-4.13,1.84M7.96,33.68c-.11.34.02.52.58.83,1.11.63,1.56,1.42,1.32,2.2-.28.9-1.36,1.32-2.51.95-1.75-.56-2.7-2-2.22-3.45.42-1.3,1.66-2.23,3.57-2.65,1.21-.29,2.71-.33,3.43-.11.21.07.36.18.32.31-.03.09-.13.13-.27.12-2.02-.09-3.85.69-4.21,1.81"/>
        <path class="cls-2" d="M52.19,58.97c1.35.32,2.69.64,4.04.95.66-.46,1.32-.92,1.98-1.38.67.72,1.63,1.98,2.26,2.88-.13.17-.26.34-.39.51-2.72-.61-5.44-1.24-8.15-1.89-.52,2.19-1.04,4.37-1.57,6.56-.48,2-1.25,2.86-4.9,2.13-.06-.72-.11-1.46-3.56-2.43.08-.27.17-.54.25-.81,1.16.46,3.16,1.13,4.59,1.47,1.16.28,1.25.1,1.49-.88.53-2.18,1.06-4.37,1.59-6.55-2.65-.64-5.3-1.3-7.95-1.98.09-.36.18-.72.27-1.07,2.64.67,5.29,1.33,7.93,1.97.28-1.17.57-2.34.85-3.51.57.33,1.14.65,1.7.98.82-.34,2.77-1.18,4.01-1.96-3.5-.82-6.99-1.67-10.48-2.54.03-.37.07-.74.1-1.12,3.64.92,7.29,1.8,10.94,2.65.64-.31,1.27-.62,1.91-.93,1.42,1.56,2.08,2.94,2.03,3.14-.06.26-.49.16-.67.12-.17-.04-1.08-.31-1.25-.35-1.15.41-3.79,1.3-6.49,1.73-.18.77-.37,1.54-.55,2.31M24.87,35.76c1.83,1.46,5.62,4.33,4.88,6.99-.08.28-.45,1.26-1.31,1.02-.6-.17-.64-.35-1.16-2.12-.72-2.68-2.52-4.59-3.21-5.37.27-.17.53-.34.8-.51M57.95,73.48c-1.12-.05-1.53.09-1.91.94-6.45-1.16-13.41-2.84-16.18-3.55-7.79-1.99-10.66-3.27-13.29-5.71-1.45-1.35-2.56-3.01-2.69-4.88-.58.38-1.88,1.26-3.22,1.93-2.46,1.22-2.74,1.34-3.08,1.52-.22.75-.31,1.06-.66.96-.27-.08-.41-.42-.45-.61-.24-.78-.47-1.56-.71-2.35,2.12-.33,4.61-1,6.65-1.8.98-3.45,1.96-6.89,2.95-10.34-1.4-.4-2.81-.81-4.21-1.21-.34-.06-.69-.11-1.03-.17,0-.47,0-.93-.01-1.4.44.19.89.38,1.34.56,1.18.35,2.37.69,3.55,1.03.68-.43,1.37-.85,2.05-1.28.63.72,2.28,3.18,2.19,3.53-.07.25-.53.22-1.9-.06-.86,3.05-1.72,6.1-2.58,9.15,0,.51,0,.71.2,1.31,5.45-3.31,7.53-7.42,9.99-16.13-1.59-.43-3.18-.87-4.77-1.32.1-.36.2-.71.3-1.07,2.03.57,4.06,1.13,6.1,1.68.44-1.64.88-3.27,1.32-4.91.87.28,1.74.56,2.61.83.5.17,1.31.41,1.21.79-.11.44-.79.4-2.15.34-.31,1.17-.62,2.33-.93,3.49,1.08.29,2.15.57,3.23.85.66-.47,1.32-.94,1.97-1.41,1.4,1.67,1.71,2.29,2.07,3.02-.15.15-.29.31-.44.46-2.84-.72-5.67-1.46-8.5-2.22-.85,2.98-1.25,4.15-1.52,4.99,1.51.4,3.01.8,4.52,1.2.51-.31,1.03-.63,1.54-.95.36.4.46.56.84,1.06,3.59-2.78,7.4-7.64,7.97-9.38.92.5,1.85.99,2.77,1.49.36.19.83.54.76.82-.1.41-.32.36-2.14-.02-.7,1-1.02,1.36-1.89,2.32,2.93.72,5.87,1.43,8.81,2.11.68-.47,1.37-.93,2.05-1.4.22.22,1.49,1.61,2.34,2.9-.19.17-.38.34-.57.5-4.51-1.02-9.01-2.08-13.5-3.2-1.6,1.65-4.03,3.43-6.05,4.62.1.16.53.84.5.94-.06.22-.5.14-1.44,0-.29,1.13-2.19,8.18-4.52,10.94-1.49,1.73-3.56,1.26-5.34.81.03-.63.09-1.39-3.1-2.63.12-.26.24-.52.36-.78,1.33.7,3.95,1.74,4.48,1.88.89.23,1.66.17,2.57-1.31,2.05-3.3,3.48-8.85,3.63-9.42.01-.05.03-.1.04-.16-1.68-.44-3.37-.88-5.05-1.33-2.17,5.28-4.53,7.96-9.64,10.39,2.55,3.83,8.61,5.54,14.36,7,4.59,1.19,14.61,3.44,18.42,3.88-.07.24-.14.48-.21.72"/>
        <path class="cls-2" d="M102.64,52.69c3.99,3.41,3.86,5.26,3.72,6.1-.08.51-.41,1.52-1.42,1.36-.74-.12-.76-.28-.89-2.05-.06-.47-.21-2.64-2.09-5.05.23-.12.45-.24.68-.35M98.43,52.79c2.41,2.35,3.09,4.84,2.86,6.25-.2,1.22-1,1.46-1.48,1.38-.88-.14-.81-.83-.75-1.74.07-1.77-.32-3.75-1.27-5.5.22-.13.43-.26.64-.39M69.51,50.68c2.08.47,10.71.16,10.99.1.18-.03.28-.04,1.27-.51.15-.07.28-.04.49,0,.39.08,2.68.75,2.53,1.55-.13.67-.49.7-1.89.73-3.81.12-13.67,4.79-15.54,13.37-1.04,4.84,1.21,7.25,3.88,8.86,2.71,1.65,5.54,2.27,6.39,2.43,12.21,2.31,14.05-8.44,14.57-11.43.69-3.98.94-9.03.22-10.78-.12-.32-1-1.7-.95-1.99.09-.51,1.07-1.26,2.33-1.04.56.1.57.33.58,2.58.05,5.04,4.09,11.71,6.66,13.36,1.28.83,2.48,1.61,2.3,2.77-.07.48-.8.77-1.34.68-1.97-.31-4.95-4.99-5.89-6.87-.95-1.91-1.7-4.92-2.14-6.75.37,4.86-.26,8.58-.45,9.71-.93,5.42-2.56,8.75-6.4,10.72-3.79,1.91-7.68,1.37-9.85.95-5.8-1.1-13.81-4.71-11.92-13.31,1.07-4.93,4.81-8.39,8.46-10.73,2.93-1.86,5.33-2.64,7.36-3.31-1.14.13-10.27.82-11.07,1.1-.5.19-1.09.43-1.35.38-1.52-.33-2.18-2.74-1.84-4.27.11-.51.47-1.73,2.11-1.58-.2.72-.79,3,.51,3.28"/>
        <path class="cls-2" d="M120.62,57.18c.12-.9,1.17-1.52,2.3-1.37,1.7.22,2.95,1.52,2.77,2.98-.17,1.36-1.2,2.51-2.95,3.31-1.14.51-2.66.84-3.4.74-.26-.04-.43-.12-.41-.25.02-.13.07-.16.66-.27,1.69-.27,3.27-1.41,3.39-2.42.05-.35-.07-.5-.62-.74-.21-.06-.25-.1-.38-.18-1.05-.5-1.46-1.05-1.36-1.79M114.71,58.77c.05-.36-.11-.51-.65-.75-.21-.06-.25-.1-.38-.19-1.04-.48-1.44-1.1-1.34-1.84.13-.87,1.19-1.47,2.36-1.31,1.69.24,2.88,1.59,2.68,3.04-.18,1.32-1.18,2.44-2.9,3.18-1.19.52-2.76.86-3.47.75-.26-.04-.43-.13-.41-.26.01-.1.11-.15.25-.19,2.01-.26,3.68-1.35,3.84-2.44"/>
        <path class="cls-2" d="M128.25,74.02c-.72,6.08,2.29,7.84,2.92,7.91,1,.11,3.65-1.47,6.24-4.57,5.27-6.31,7.38-11.62,7.63-14.18.08-.81-.06-1.28-.63-2.22-6.61.11-15.07,4.11-16.15,13.06M139.87,87.03c9.87.9,22.45-.23,23.17-12.18.27-4.29-1.13-6.79-3.54-9.05-3.41-3.18-7.5-4.35-11.88-4.74-1.09-.1-1.85-.1-2.51-.13.72.75,1.81,1.93,1.67,3.52-.26,3.48-8.84,19.65-15.72,18.88-1.41-.16-1.68-.58-2.62-1.97-.19-.32-1.34-1.5-1.53-1.79-1.36-2.03-1.06-5.25-.96-6.05,1.12-8.83,10.76-14.56,22.6-13.52,7.98.73,17.72,5.05,17.14,15.51-.48,8.33-7.47,11.18-9.59,11.83-4.41,1.38-10.18,1.49-16.21.9,0-.4-.01-.81-.02-1.21"/>
        <path class="cls-2" d="M170.61,89.68c8.6-2.1,15.56-6.87,18.69-9.73,3.1-2.85,7.66-8.78,9.2-13.92-3.42.1-25.95,1.03-26.99,1.09-.23.05-.96.54-1.18.53-1.2-.06-3.71-2.53-3.61-4.28.04-.68.4-.89.99-1.12.11,1.15,1.11,2.12,1.36,2.33.38.31.6.33,2.63.43,1.37.17,22.06.17,25.71-.16.22-.19,1.2-1.03,1.42-1.19.09-.06.18-.06.22-.06.57,0,3.94,2.89,3.94,3.35,0,.39-1.46.45-2.08.48-7.02,16.75-22.32,21.44-29.76,23.2-.18-.31-.37-.63-.55-.94"/>
        <path class="cls-2" d="M217.42,75.23c0,.13-.21.75-.25.89-.16.78-.15,1.79-.12,8.44,6.98-.43,8.24-.56,9.06-.71.23-.07,1.26-.5,1.35-.5.18,0,3.73.36,3.78,1.46.02.46-.34.73-.97.76-.41.02-2.37-.21-2.78-.23-.68-.01-1.23,0-2.14.04-5.49.2-17.35.95-19.63,1.45-.23.07-1.05.49-1.23.49-.96,0-2.86-2.13-2.85-3.07,0-.52.32-.85.78-1.23.04.36.63,2.06,2.31,2.06.46.02,8.9-.33,10.53-.4.02-1.99.02-4.72.01-5.08-.02-1.3-.08-5.05-.63-5.92-.36.01-4.95.39-5.93.65-.18.07-.89.52-1.07.53-.67,0-2.86-1.69-2.86-3.02,0-.62.18-.78.76-1.17.13.59.49,2.12,2.27,2.11,1.92.02,13.14-.68,14.2-.86.27-.04,1.37-.56,1.59-.57.53-.01,3.43.25,3.47,1.2.02.62-.69.64-1.01.65-.4.01-2.19-.06-2.54-.05-1.92.06-7.62.47-7.84.47.49.29,1.76.98,1.77,1.66"/>
        <path class="cls-2" d="M233.63,89.14c3.78-1.39,11.25-4.41,17.91-10.7,3.11-2.92,8.36-9.1,10.26-14.57-1.12.28-19.52,2.65-21.05,3.14-.04,0-.55.39-.59.46-.17.14-.39.18-.52.19-1.33.07-4.15-2.37-4.23-4.06-.03-.62.57-1,1.08-1.32.06.35.13.88.97,1.78.79.91,1.2,1.02,2.43.95,3.71-.13,19.28-1.95,21.63-2.38.16-.15.77-.82.93-.97.08-.1.24-.25.46-.27.48-.04,3.66,2.28,3.71,2.7.04.42-1.81.63-2.38.68-.75,1.57-2.75,5.88-7.3,10.92,9.18,2.83,15.77,7.66,16.03,10.16.12,1.17-.63,1.5-.95,1.54-.64.06-1.25-.47-2.38-1.76-4.45-5.12-10.66-8-13.41-9.16-.74.79-8.23,9.2-22.05,13.5-.18-.27-.36-.55-.54-.82"/>
        <path class="cls-2" d="M277.01,59.18c1.43.89,2.44,1.2,4.5.96,4.25-.49,12.56-2.59,14.35-3.42.16-.09.91-.76,1.13-.79.35-.05,2-.03,2.53-.04.67,0,1.26.08,1.34.66.12.77-1.25,1.18-2.58,1.57-2.09.63-12.48,2.95-16.17,3.36-3.2.38-4.66-.74-5.59-1.49.16-.27.32-.54.48-.81M278.66,86.69c2.33-1.03,8.77-4.06,11.2-9.97,1.5-3.61,1.37-6.58,1.24-7.55-.1-.78-.26-.92-.53-1.28-5.94,1.15-11.99,2.16-14.58,3.2-.22.09-1.01.67-1.23.69-1.38.15-3.75-1.87-3.92-3.59-.08-.81.51-1.2.92-1.47.09.42.31,1.28,1.25,2.16.34.29.76.41,1.96.28.46.05,20.49-3.45,21.83-3.8,6.75-1.33,7.49-1.51,7.91-1.67.22-.07,1.06-.76,1.28-.79.48-.07,3.13.1,3.82.18.65.09,1.26.26,1.36.87.11.68-.3.94-.92,1.04-.44.07-2.82.22-3.35.27-1.79.15-4.66.59-5.32.68-2.92.43-5.25.87-9.47,1.67,1,.36,2.34.93,2.41,1.42.06.42-.46.59-.85.74-.11,3.23-.27,12.26-14.27,17.75-.25-.28-.49-.56-.74-.84"/>
        <path class="cls-2" d="M306.12,75.41c11.93-5.46,20.37-15.6,20.17-16.51-.06-.32-.88-1.06-2.33-1.09.22-.27.64-.71,1.07-.8,1.18-.22,4.55,1.29,4.74,2.28.05.26-.09.48-.61.58-.17.03-.49.03-.54.04-1.12,1.31-3.26,3.88-7.36,7.3.68.21,1.38.54,1.49,1.12.02.13-.11.65-.13.79-.01.7.49,3.49.64,4.32.17.96.52,2.85.76,3.67.26.91.37,1.26.52,2.09.2,1.09-.6,1.33-.74,1.36-.68.12-1.52-1.71-1.6-2.16-.03-.19-.05-.26.02-.96.02-.67-.42-3.13-.57-3.97-.21-1.15-.87-4.91-1.34-5.48-6.13,4.69-10.98,7-13.56,8.16-.21-.24-.41-.49-.62-.73"/>
        <path class="cls-2" d="M361.14,43.92c3.27.69,5.84,2.08,6.26,3.72.23.88-.14,1.42-.66,1.55-.78.2-1.33-.5-1.67-.95-1.67-2.23-3.59-3.16-4.57-3.59.21-.24.43-.49.64-.73M356.3,47.25c2.61.45,6.12,1.82,6.64,3.87.22.89-.13,1.34-.61,1.46-.7.17-.95-.1-1.95-1.19-.39-.44-1.79-2.04-4.68-3.42.2-.24.4-.48.6-.71M349.81,51.29c8.33,2.12,19.02,9.51,20.04,13.38.4,1.55-.26,1.95-.66,2.05-.98.25-1.76-.6-2.2-1.23-5.74-7.82-13.32-11.63-17.67-13.32.16-.29.32-.59.48-.88M330.74,74.83c6.46-6.54,10.01-17.68,9.7-19.04-.09-.42-1.38-1.1-3.52-.69.1-.42.25-1.21,1.6-1.5,1.39-.29,5.23.65,5.51,1.88.08.35-.26.49-.92.8-3.19,11-9.39,17.32-11.45,19.17-.3-.21-.61-.41-.91-.62"/>
        <path class="cls-2" d="M407.52,41.76c-1.18,5.75-3.03,11.89-10.47,18.55-.42.37-2.79,2.12-2.94,2.43-.05.15-.2.81-.21.94-.1.3-.24.51-.46.57-.62.18-2.62-1.58-2.78-2.11-.05-.19.11-1.12.1-1.32-.16-1.21-.34-2.65-4.13-15.73-.31-1.06-1.55-5.52-2.12-6.03-.84-.81-2.97-.37-4.15-.14.05-.49.14-1.29,1.25-1.61,2.04-.58,5.98-.38,6.29.68.07.25,0,.31-.31.67-.18.19-.31.36-.19.94.93,4.11,4.7,17.8,5.66,21.08,4.16-2.69,11.52-9.83,13.38-19.12.35.06.7.11,1.05.17M371.79,69.86c6.64-7.23,7.61-14.87,4.88-24.85-.26-.94-1.17-1.23-3.83-.68.16-.78.35-1.27,1.33-1.54,2.44-.66,5.37.25,5.6,1.06.05.19-.08.36-.59.88-.14.14.84,5.55.99,6.59,1.15,7.83-2.94,14.97-7.55,19.17-.28-.21-.55-.42-.83-.63"/>
      </g>
    </g>
  </g>
</svg>