<?xml version="1.0" encoding="UTF-8"?>
<svg id="Layer_2" data-name="Layer 2" xmlns="http://www.w3.org/2000/svg" viewBox="0 0 241.02 50.17">
  <defs>
    <style>
      .cls-1 {
        stroke: #fff;
        stroke-width: 8px;
      }

      .cls-1, .cls-2 {
        fill: #010101;
      }

      .cls-2 {
        stroke-width: 0px;
      }
    </style>
  </defs>
  <g id="Layer_1-2" data-name="Layer 1">
    <g>
      <g id="date">
        <rect class="cls-1" x="64.6" y="17.74" width="21.89" height=".57"/>
        <rect class="cls-1" x="160.6" y="17.74" width="32.15" height=".57"/>
        <g>
          <path class="cls-1" d="M11.91,27.75c-3.03,0-5.33-1.08-6.6-3.03-.77-1.18-1.05-2.17-1.15-4.53h4.43c.1,2.65,1.15,3.99,3.22,3.99s3.35-1.47,3.35-3.67c0-2.36-1.34-3.29-5.07-3.29v-3.19h.7c2.52,0,3.8-.99,3.8-2.97s-1.12-3-2.9-3c-2.04,0-3.06,1.24-3.09,3.7h-4.05c.03-1.56.19-2.23.54-3.13.99-2.68,3.44-4.15,6.79-4.15,4.34,0,7.18,2.49,7.18,6.19,0,2.01-.89,3.51-2.71,4.43v.06c2.26.86,3.41,2.62,3.41,5.26,0,4.34-3.19,7.3-7.85,7.3Z"/>
          <path class="cls-1" d="M22.06,27.15v-4.66h4.78v4.66h-4.78Z"/>
          <path class="cls-1" d="M29.49,27.15c.1-1.75.19-2.46.61-3.54.26-.73.64-1.47,1.15-2.14,1.12-1.43,1.82-2.07,4.59-4.11,2.46-1.79,2.74-2.01,3.67-3.13.64-.73.96-1.63.96-2.65,0-2.04-1.28-3.32-3.19-3.32-1.18,0-2.04.41-2.58,1.24-.41.64-.57,1.34-.61,3h-4.34c.03-.51.03-.89.06-1.15.1-1.56.41-2.62,1.05-3.67,1.24-2.07,3.41-3.19,6.31-3.19,4.62,0,7.75,2.87,7.75,7.11,0,2.01-.67,3.7-1.98,5.13-.8.89-1.21,1.24-3.57,2.84-1.02.73-1.91,1.37-2.77,2.04-.8.61-1.05.89-1.47,1.56h9.82v3.95h-15.47Z"/>
          <path class="cls-1" d="M60.07,18.95l-5.07,8.2h-5.07l4.75-7.75c-.67.22-1.31.35-1.98.35-3.16,0-6.09-2.68-6.09-7.33s3.19-7.91,7.78-7.91,7.81,3.32,7.81,8.16c0,1.28-.1,3.06-2.14,6.28ZM54.3,8.08c-2.01,0-3.22,1.63-3.22,4.21,0,2.42,1.28,3.89,3.32,3.89s3.25-1.43,3.25-3.95-1.31-4.15-3.35-4.15Z"/>
        </g>
        <g>
          <path class="cls-1" d="M67.84,6.33v2.58h5.04v2.03h-5.04v4.82h-2.39V4.3h8.15v2.03h-5.76Z"/>
          <path class="cls-1" d="M79.05,9.34c-.18-.02-.32-.03-.56-.03-1.47,0-2.14.62-2.14,2.03v4.42h-2.23V7.27h2.14v1.47h.03c.24-.5.35-.64.56-.89.41-.53.99-.8,1.74-.8.13,0,.16-.02.43.03h.03v2.26Z"/>
          <path class="cls-1" d="M79.83,6.26v-2.07h2.23v2.07h-2.23ZM79.83,15.75V7.27h2.23v8.48h-2.23Z"/>
        </g>
        <path class="cls-1" d="M83.48,15.75v-2.33h2.39v2.33h-2.39Z"/>
        <path class="cls-1" d="M92.91,16.96v-1.01h35.46v1.01h-35.46Z"/>
        <g>
          <path class="cls-1" d="M142.22,27.75c-3.03,0-5.33-1.08-6.6-3.03-.77-1.18-1.05-2.17-1.15-4.53h4.43c.1,2.65,1.15,3.99,3.22,3.99s3.35-1.47,3.35-3.67c0-2.36-1.34-3.29-5.07-3.29v-3.19h.7c2.52,0,3.8-.99,3.8-2.97s-1.12-3-2.9-3c-2.04,0-3.06,1.24-3.09,3.7h-4.05c.03-1.56.19-2.23.54-3.13.99-2.68,3.44-4.15,6.79-4.15,4.34,0,7.18,2.49,7.18,6.19,0,2.01-.89,3.51-2.71,4.43v.06c2.26.86,3.41,2.62,3.41,5.26,0,4.34-3.19,7.3-7.85,7.3Z"/>
          <path class="cls-1" d="M153.35,27.15V4.5h4.46v22.64h-4.46Z"/>
        </g>
        <g>
          <path class="cls-1" d="M165.81,16.05c-1.36,0-2.55-.32-3.38-.91-.37-.27-.65-.61-.89-1-.33-.59-.45-.97-.49-1.91h2.3c.08,1.23.91,1.85,2.5,1.85,1.47,0,2.31-.51,2.31-1.47,0-.69-.45-1.05-1.61-1.32l-.88-.21c-1.69-.38-2.22-.54-2.81-.8-1.08-.45-1.64-1.37-1.64-2.71,0-2.25,1.64-3.57,4.38-3.57s4.31,1.32,4.48,3.7h-2.3c-.18-1.21-.89-1.72-2.31-1.72-1.26,0-2.02.53-2.02,1.36,0,.65.32,1,1.21,1.21l2.79.69c2.15.53,3,1.4,3,3.12,0,2.3-1.77,3.7-4.64,3.7Z"/>
          <path class="cls-1" d="M179.26,12.79c0,2.1-1.32,3.19-3.87,3.19s-3.79-1.12-3.79-3.09v-5.61h2.23v5.31c0,.97.56,1.51,1.58,1.51,1.08,0,1.63-.48,1.63-1.45v-5.37h2.23v5.52Z"/>
          <path class="cls-1" d="M186.07,15.75v-5.15c0-1.2-.41-1.67-1.42-1.67-1.1,0-1.79.75-1.79,1.96v4.86h-2.23V7.27h2.14v1.24h.02c.37-.53.53-.72.86-.96.46-.33,1.04-.51,1.71-.51,1.8,0,2.95,1.12,2.95,2.84v5.87h-2.23Z"/>
        </g>
        <path class="cls-1" d="M189.74,15.75v-2.33h2.39v2.33h-2.39Z"/>
        <path class="cls-1" d="M199.2,25.88V5.24h.54v20.64h-.54Z"/>
        <g>
          <path class="cls-1" d="M204.7,20.28c.04-.7.08-.98.24-1.42.1-.29.25-.59.46-.85.45-.57.73-.83,1.84-1.65.98-.71,1.1-.8,1.47-1.25.25-.29.38-.65.38-1.06,0-.82-.51-1.33-1.28-1.33-.47,0-.82.17-1.03.5-.17.26-.23.54-.24,1.2h-1.73c.01-.2.01-.36.03-.46.04-.62.17-1.05.42-1.47.5-.83,1.36-1.28,2.53-1.28,1.85,0,3.1,1.15,3.1,2.84,0,.8-.27,1.48-.79,2.05-.32.36-.48.5-1.43,1.13-.41.29-.77.55-1.11.82-.32.24-.42.36-.59.62h3.93v1.58h-6.19Z"/>
          <path class="cls-1" d="M217.33,19.13c-.5.93-1.35,1.39-2.54,1.39-2.13,0-3.13-1.48-3.13-4.6s.97-4.69,3.15-4.69c1.11,0,1.95.43,2.45,1.25.41.68.68,2.19.68,3.61,0,1.15-.24,2.37-.61,3.05ZM215.7,13.09c-.18-.29-.48-.45-.92-.45-.96,0-1.28.82-1.28,3.11,0,2.55.31,3.33,1.31,3.33.47,0,.78-.19.98-.65.09-.19.14-.36.17-.51.1-.51.14-1.56.14-2.44,0-1.14-.14-1.93-.41-2.4Z"/>
          <path class="cls-1" d="M218.54,20.28c.04-.7.08-.98.24-1.42.1-.29.25-.59.46-.85.45-.57.73-.83,1.84-1.65.98-.71,1.1-.8,1.47-1.25.26-.29.38-.65.38-1.06,0-.82-.51-1.33-1.28-1.33-.47,0-.82.17-1.03.5-.17.26-.23.54-.24,1.2h-1.73c.01-.2.01-.36.03-.46.04-.62.17-1.05.42-1.47.5-.83,1.36-1.28,2.53-1.28,1.85,0,3.1,1.15,3.1,2.84,0,.8-.27,1.48-.79,2.05-.32.36-.48.5-1.43,1.13-.41.29-.77.55-1.11.82-.32.24-.42.36-.59.62h3.93v1.58h-6.19Z"/>
          <path class="cls-1" d="M231.04,17.29v2.99h-1.79v-2.99h-3.67v-6.07h1.79v4.68h1.89v-3.21h1.79v3.21h.61v1.39h-.61Z"/>
        </g>
        <path class="cls-1" d="M236.48,25.88V5.24h.54v20.64h-.54Z"/>
      </g>
      <g id="time">
        <g>
          <path class="cls-1" d="M102.8,44.43c-.62,1.16-1.69,1.74-3.17,1.74-2.66,0-3.91-1.85-3.91-5.76s1.21-5.87,3.94-5.87c1.39,0,2.44.54,3.06,1.56.51.85.85,2.74.85,4.51,0,1.44-.3,2.97-.77,3.81ZM100.76,36.89c-.22-.37-.61-.56-1.15-.56-1.2,0-1.59,1.02-1.59,3.89,0,3.19.38,4.16,1.64,4.16.59,0,.97-.24,1.23-.81.11-.24.18-.45.21-.64.13-.64.18-1.95.18-3.05,0-1.42-.18-2.41-.51-3Z"/>
          <path class="cls-1" d="M93.91,44.43c-.62,1.16-1.69,1.74-3.17,1.74-2.66,0-3.91-1.85-3.91-5.76s1.21-5.87,3.94-5.87c1.39,0,2.44.54,3.06,1.56.51.85.85,2.74.85,4.51,0,1.44-.3,2.97-.77,3.81ZM91.87,36.89c-.22-.37-.61-.56-1.15-.56-1.2,0-1.59,1.02-1.59,3.89,0,3.19.38,4.16,1.64,4.16.59,0,.97-.24,1.23-.81.11-.24.18-.45.21-.64.13-.64.18-1.95.18-3.05,0-1.42-.18-2.41-.51-3Z"/>
          <path class="cls-1" d="M83.14,40.03v-2.33h2.39v2.33h-2.39ZM83.14,45.87v-2.33h2.39v2.33h-2.39Z"/>
          <path class="cls-1" d="M73.99,45.87c.05-.88.1-1.23.3-1.77.13-.37.32-.73.57-1.07.56-.72.91-1.04,2.3-2.06,1.23-.89,1.37-1,1.83-1.56.32-.37.48-.81.48-1.32,0-1.02-.64-1.66-1.59-1.66-.59,0-1.02.21-1.29.62-.21.32-.29.67-.3,1.5h-2.17c.02-.25.02-.45.03-.57.05-.78.21-1.31.53-1.83.62-1.04,1.71-1.59,3.16-1.59,2.31,0,3.88,1.44,3.88,3.56,0,1-.33,1.85-.99,2.57-.4.45-.61.62-1.79,1.42-.51.37-.96.69-1.39,1.02-.4.3-.53.45-.73.78h4.91v1.98h-7.73Z"/>
          <path class="cls-1" d="M70.2,45.87v-11.32h2.23v11.32h-2.23Z"/>
        </g>
        <path class="cls-1" d="M105.26,40.7v-1.01h10.62v1.01h-10.62Z"/>
        <g>
          <path class="cls-1" d="M117.65,45.87v-11.32h2.23v11.32h-2.23Z"/>
          <path class="cls-1" d="M125.49,46.17c-2.38,0-3.89-1.37-3.89-3.54,0-.86.24-1.55.73-2.07.26-.3.46-.43.99-.7-.97-.56-1.37-1.18-1.37-2.22,0-1.85,1.44-3.09,3.56-3.09s3.56,1.21,3.56,2.98c0,1.02-.41,1.72-1.31,2.25.65.35.83.53,1.13.86.37.43.56,1.05.56,1.8,0,2.25-1.59,3.73-3.95,3.73ZM125.51,40.83c-1,0-1.61.67-1.61,1.75s.62,1.8,1.64,1.8c.96,0,1.61-.72,1.61-1.79s-.64-1.77-1.64-1.77ZM125.57,36.33c-.89,0-1.48.54-1.48,1.37s.61,1.44,1.45,1.44,1.39-.56,1.39-1.4-.54-1.4-1.36-1.4Z"/>
          <path class="cls-1" d="M130.63,40.03v-2.33h2.39v2.33h-2.39ZM130.63,45.87v-2.33h2.39v2.33h-2.39Z"/>
          <path class="cls-1" d="M141.4,44.43c-.62,1.16-1.69,1.74-3.17,1.74-2.66,0-3.91-1.85-3.91-5.76s1.21-5.87,3.94-5.87c1.39,0,2.44.54,3.06,1.56.51.85.85,2.74.85,4.51,0,1.44-.3,2.97-.77,3.81ZM139.36,36.89c-.22-.37-.61-.56-1.15-.56-1.2,0-1.59,1.02-1.59,3.89,0,3.19.38,4.16,1.64,4.16.59,0,.97-.24,1.23-.81.11-.24.18-.45.21-.64.13-.64.18-1.95.18-3.05,0-1.42-.18-2.41-.51-3Z"/>
          <path class="cls-1" d="M150.29,44.43c-.62,1.16-1.69,1.74-3.17,1.74-2.66,0-3.91-1.85-3.91-5.76s1.21-5.87,3.94-5.87c1.39,0,2.44.54,3.06,1.56.51.85.85,2.74.85,4.51,0,1.44-.3,2.97-.77,3.81ZM148.25,36.89c-.22-.37-.61-.56-1.15-.56-1.2,0-1.59,1.02-1.59,3.89,0,3.19.38,4.16,1.64,4.16.59,0,.97-.24,1.23-.81.11-.24.18-.45.21-.64.13-.64.18-1.95.18-3.05,0-1.42-.18-2.41-.51-3Z"/>
        </g>
      </g>
    </g>
    <g>
      <g id="date-2" data-name="date">
        <rect class="cls-2" x="64.6" y="17.74" width="21.89" height=".57"/>
        <rect class="cls-2" x="160.6" y="17.74" width="32.15" height=".57"/>
        <g>
          <path class="cls-2" d="M11.91,27.75c-3.03,0-5.33-1.08-6.6-3.03-.77-1.18-1.05-2.17-1.15-4.53h4.43c.1,2.65,1.15,3.99,3.22,3.99s3.35-1.47,3.35-3.67c0-2.36-1.34-3.29-5.07-3.29v-3.19h.7c2.52,0,3.8-.99,3.8-2.97s-1.12-3-2.9-3c-2.04,0-3.06,1.24-3.09,3.7h-4.05c.03-1.56.19-2.23.54-3.13.99-2.68,3.44-4.15,6.79-4.15,4.34,0,7.18,2.49,7.18,6.19,0,2.01-.89,3.51-2.71,4.43v.06c2.26.86,3.41,2.62,3.41,5.26,0,4.34-3.19,7.3-7.85,7.3Z"/>
          <path class="cls-2" d="M22.06,27.15v-4.66h4.78v4.66h-4.78Z"/>
          <path class="cls-2" d="M29.49,27.15c.1-1.75.19-2.46.61-3.54.26-.73.64-1.47,1.15-2.14,1.12-1.43,1.82-2.07,4.59-4.11,2.46-1.79,2.74-2.01,3.67-3.13.64-.73.96-1.63.96-2.65,0-2.04-1.28-3.32-3.19-3.32-1.18,0-2.04.41-2.58,1.24-.41.64-.57,1.34-.61,3h-4.34c.03-.51.03-.89.06-1.15.1-1.56.41-2.62,1.05-3.67,1.24-2.07,3.41-3.19,6.31-3.19,4.62,0,7.75,2.87,7.75,7.11,0,2.01-.67,3.7-1.98,5.13-.8.89-1.21,1.24-3.57,2.84-1.02.73-1.91,1.37-2.77,2.04-.8.61-1.05.89-1.47,1.56h9.82v3.95h-15.47Z"/>
          <path class="cls-2" d="M60.07,18.95l-5.07,8.2h-5.07l4.75-7.75c-.67.22-1.31.35-1.98.35-3.16,0-6.09-2.68-6.09-7.33s3.19-7.91,7.78-7.91,7.81,3.32,7.81,8.16c0,1.28-.1,3.06-2.14,6.28ZM54.3,8.08c-2.01,0-3.22,1.63-3.22,4.21,0,2.42,1.28,3.89,3.32,3.89s3.25-1.43,3.25-3.95-1.31-4.15-3.35-4.15Z"/>
        </g>
        <g>
          <path class="cls-2" d="M67.84,6.33v2.58h5.04v2.03h-5.04v4.82h-2.39V4.3h8.15v2.03h-5.76Z"/>
          <path class="cls-2" d="M79.05,9.34c-.18-.02-.32-.03-.56-.03-1.47,0-2.14.62-2.14,2.03v4.42h-2.23V7.27h2.14v1.47h.03c.24-.5.35-.64.56-.89.41-.53.99-.8,1.74-.8.13,0,.16-.02.43.03h.03v2.26Z"/>
          <path class="cls-2" d="M79.83,6.26v-2.07h2.23v2.07h-2.23ZM79.83,15.75V7.27h2.23v8.48h-2.23Z"/>
        </g>
        <path class="cls-2" d="M83.48,15.75v-2.33h2.39v2.33h-2.39Z"/>
        <path class="cls-2" d="M92.91,16.96v-1.01h35.46v1.01h-35.46Z"/>
        <g>
          <path class="cls-2" d="M142.22,27.75c-3.03,0-5.33-1.08-6.6-3.03-.77-1.18-1.05-2.17-1.15-4.53h4.43c.1,2.65,1.15,3.99,3.22,3.99s3.35-1.47,3.35-3.67c0-2.36-1.34-3.29-5.07-3.29v-3.19h.7c2.52,0,3.8-.99,3.8-2.97s-1.12-3-2.9-3c-2.04,0-3.06,1.24-3.09,3.7h-4.05c.03-1.56.19-2.23.54-3.13.99-2.68,3.44-4.15,6.79-4.15,4.34,0,7.18,2.49,7.18,6.19,0,2.01-.89,3.51-2.71,4.43v.06c2.26.86,3.41,2.62,3.41,5.26,0,4.34-3.19,7.3-7.85,7.3Z"/>
          <path class="cls-2" d="M153.35,27.15V4.5h4.46v22.64h-4.46Z"/>
        </g>
        <g>
          <path class="cls-2" d="M165.81,16.05c-1.36,0-2.55-.32-3.38-.91-.37-.27-.65-.61-.89-1-.33-.59-.45-.97-.49-1.91h2.3c.08,1.23.91,1.85,2.5,1.85,1.47,0,2.31-.51,2.31-1.47,0-.69-.45-1.05-1.61-1.32l-.88-.21c-1.69-.38-2.22-.54-2.81-.8-1.08-.45-1.64-1.37-1.64-2.71,0-2.25,1.64-3.57,4.38-3.57s4.31,1.32,4.48,3.7h-2.3c-.18-1.21-.89-1.72-2.31-1.72-1.26,0-2.02.53-2.02,1.36,0,.65.32,1,1.21,1.21l2.79.69c2.15.53,3,1.4,3,3.12,0,2.3-1.77,3.7-4.64,3.7Z"/>
          <path class="cls-2" d="M179.26,12.79c0,2.1-1.32,3.19-3.87,3.19s-3.79-1.12-3.79-3.09v-5.61h2.23v5.31c0,.97.56,1.51,1.58,1.51,1.08,0,1.63-.48,1.63-1.45v-5.37h2.23v5.52Z"/>
          <path class="cls-2" d="M186.07,15.75v-5.15c0-1.2-.41-1.67-1.42-1.67-1.1,0-1.79.75-1.79,1.96v4.86h-2.23V7.27h2.14v1.24h.02c.37-.53.53-.72.86-.96.46-.33,1.04-.51,1.71-.51,1.8,0,2.95,1.12,2.95,2.84v5.87h-2.23Z"/>
        </g>
        <path class="cls-2" d="M189.74,15.75v-2.33h2.39v2.33h-2.39Z"/>
        <path class="cls-2" d="M199.2,25.88V5.24h.54v20.64h-.54Z"/>
        <g>
          <path class="cls-2" d="M204.7,20.28c.04-.7.08-.98.24-1.42.1-.29.25-.59.46-.85.45-.57.73-.83,1.84-1.65.98-.71,1.1-.8,1.47-1.25.25-.29.38-.65.38-1.06,0-.82-.51-1.33-1.28-1.33-.47,0-.82.17-1.03.5-.17.26-.23.54-.24,1.2h-1.73c.01-.2.01-.36.03-.46.04-.62.17-1.05.42-1.47.5-.83,1.36-1.28,2.53-1.28,1.85,0,3.1,1.15,3.1,2.84,0,.8-.27,1.48-.79,2.05-.32.36-.48.5-1.43,1.13-.41.29-.77.55-1.11.82-.32.24-.42.36-.59.62h3.93v1.58h-6.19Z"/>
          <path class="cls-2" d="M217.33,19.13c-.5.93-1.35,1.39-2.54,1.39-2.13,0-3.13-1.48-3.13-4.6s.97-4.69,3.15-4.69c1.11,0,1.95.43,2.45,1.25.41.68.68,2.19.68,3.61,0,1.15-.24,2.37-.61,3.05ZM215.7,13.09c-.18-.29-.48-.45-.92-.45-.96,0-1.28.82-1.28,3.11,0,2.55.31,3.33,1.31,3.33.47,0,.78-.19.98-.65.09-.19.14-.36.17-.51.1-.51.14-1.56.14-2.44,0-1.14-.14-1.93-.41-2.4Z"/>
          <path class="cls-2" d="M218.54,20.28c.04-.7.08-.98.24-1.42.1-.29.25-.59.46-.85.45-.57.73-.83,1.84-1.65.98-.71,1.1-.8,1.47-1.25.26-.29.38-.65.38-1.06,0-.82-.51-1.33-1.28-1.33-.47,0-.82.17-1.03.5-.17.26-.23.54-.24,1.2h-1.73c.01-.2.01-.36.03-.46.04-.62.17-1.05.42-1.47.5-.83,1.36-1.28,2.53-1.28,1.85,0,3.1,1.15,3.1,2.84,0,.8-.27,1.48-.79,2.05-.32.36-.48.5-1.43,1.13-.41.29-.77.55-1.11.82-.32.24-.42.36-.59.62h3.93v1.58h-6.19Z"/>
          <path class="cls-2" d="M231.04,17.29v2.99h-1.79v-2.99h-3.67v-6.07h1.79v4.68h1.89v-3.21h1.79v3.21h.61v1.39h-.61Z"/>
        </g>
        <path class="cls-2" d="M236.48,25.88V5.24h.54v20.64h-.54Z"/>
      </g>
      <g id="time-2" data-name="time">
        <g>
          <path class="cls-2" d="M102.8,44.43c-.62,1.16-1.69,1.74-3.17,1.74-2.66,0-3.91-1.85-3.91-5.76s1.21-5.87,3.94-5.87c1.39,0,2.44.54,3.06,1.56.51.85.85,2.74.85,4.51,0,1.44-.3,2.97-.77,3.81ZM100.76,36.89c-.22-.37-.61-.56-1.15-.56-1.2,0-1.59,1.02-1.59,3.89,0,3.19.38,4.16,1.64,4.16.59,0,.97-.24,1.23-.81.11-.24.18-.45.21-.64.13-.64.18-1.95.18-3.05,0-1.42-.18-2.41-.51-3Z"/>
          <path class="cls-2" d="M93.91,44.43c-.62,1.16-1.69,1.74-3.17,1.74-2.66,0-3.91-1.85-3.91-5.76s1.21-5.87,3.94-5.87c1.39,0,2.44.54,3.06,1.56.51.85.85,2.74.85,4.51,0,1.44-.3,2.97-.77,3.81ZM91.87,36.89c-.22-.37-.61-.56-1.15-.56-1.2,0-1.59,1.02-1.59,3.89,0,3.19.38,4.16,1.64,4.16.59,0,.97-.24,1.23-.81.11-.24.18-.45.21-.64.13-.64.18-1.95.18-3.05,0-1.42-.18-2.41-.51-3Z"/>
          <path class="cls-2" d="M83.14,40.03v-2.33h2.39v2.33h-2.39ZM83.14,45.87v-2.33h2.39v2.33h-2.39Z"/>
          <path class="cls-2" d="M73.99,45.87c.05-.88.1-1.23.3-1.77.13-.37.32-.73.57-1.07.56-.72.91-1.04,2.3-2.06,1.23-.89,1.37-1,1.83-1.56.32-.37.48-.81.48-1.32,0-1.02-.64-1.66-1.59-1.66-.59,0-1.02.21-1.29.62-.21.32-.29.67-.3,1.5h-2.17c.02-.25.02-.45.03-.57.05-.78.21-1.31.53-1.83.62-1.04,1.71-1.59,3.16-1.59,2.31,0,3.88,1.44,3.88,3.56,0,1-.33,1.85-.99,2.57-.4.45-.61.62-1.79,1.42-.51.37-.96.69-1.39,1.02-.4.3-.53.45-.73.78h4.91v1.98h-7.73Z"/>
          <path class="cls-2" d="M70.2,45.87v-11.32h2.23v11.32h-2.23Z"/>
        </g>
        <path class="cls-2" d="M105.26,40.7v-1.01h10.62v1.01h-10.62Z"/>
        <g>
          <path class="cls-2" d="M117.65,45.87v-11.32h2.23v11.32h-2.23Z"/>
          <path class="cls-2" d="M125.49,46.17c-2.38,0-3.89-1.37-3.89-3.54,0-.86.24-1.55.73-2.07.26-.3.46-.43.99-.7-.97-.56-1.37-1.18-1.37-2.22,0-1.85,1.44-3.09,3.56-3.09s3.56,1.21,3.56,2.98c0,1.02-.41,1.72-1.31,2.25.65.35.83.53,1.13.86.37.43.56,1.05.56,1.8,0,2.25-1.59,3.73-3.95,3.73ZM125.51,40.83c-1,0-1.61.67-1.61,1.75s.62,1.8,1.64,1.8c.96,0,1.61-.72,1.61-1.79s-.64-1.77-1.64-1.77ZM125.57,36.33c-.89,0-1.48.54-1.48,1.37s.61,1.44,1.45,1.44,1.39-.56,1.39-1.4-.54-1.4-1.36-1.4Z"/>
          <path class="cls-2" d="M130.63,40.03v-2.33h2.39v2.33h-2.39ZM130.63,45.87v-2.33h2.39v2.33h-2.39Z"/>
          <path class="cls-2" d="M141.4,44.43c-.62,1.16-1.69,1.74-3.17,1.74-2.66,0-3.91-1.85-3.91-5.76s1.21-5.87,3.94-5.87c1.39,0,2.44.54,3.06,1.56.51.85.85,2.74.85,4.51,0,1.44-.3,2.97-.77,3.81ZM139.36,36.89c-.22-.37-.61-.56-1.15-.56-1.2,0-1.59,1.02-1.59,3.89,0,3.19.38,4.16,1.64,4.16.59,0,.97-.24,1.23-.81.11-.24.18-.45.21-.64.13-.64.18-1.95.18-3.05,0-1.42-.18-2.41-.51-3Z"/>
          <path class="cls-2" d="M150.29,44.43c-.62,1.16-1.69,1.74-3.17,1.74-2.66,0-3.91-1.85-3.91-5.76s1.21-5.87,3.94-5.87c1.39,0,2.44.54,3.06,1.56.51.85.85,2.74.85,4.51,0,1.44-.3,2.97-.77,3.81ZM148.25,36.89c-.22-.37-.61-.56-1.15-.56-1.2,0-1.59,1.02-1.59,3.89,0,3.19.38,4.16,1.64,4.16.59,0,.97-.24,1.23-.81.11-.24.18-.45.21-.64.13-.64.18-1.95.18-3.05,0-1.42-.18-2.41-.51-3Z"/>
        </g>
      </g>
    </g>
  </g>
</svg>