<?xml version="1.0" encoding="UTF-8"?>
<svg id="Layer_2" data-name="Layer 2" xmlns="http://www.w3.org/2000/svg" viewBox="0 0 22 98.81">
  <defs>
    <style>
      .cls-1 {
        stroke-width: 0px;
      }
    </style>
  </defs>
  <g id="text">
    <g id="icon">
      <path class="cls-1" d="M10.86,48.3c-.61,0-1.16-.2-1.63-.61-.47-.41-.75-.92-.83-1.53-.56-.08-1.04-.32-1.42-.7-.38-.38-.61-.85-.7-1.42-.56-.08-1.03-.32-1.41-.71-.37-.39-.6-.86-.68-1.41-.63-.08-1.14-.36-1.54-.82-.4-.46-.6-1.01-.6-1.64,0-.33.06-.65.19-.96.12-.31.3-.58.53-.81l5.77-5.75,3.26,3.26s.08.09.15.11c.07.02.13.04.2.04.15,0,.27-.04.37-.14.1-.09.15-.21.15-.36,0-.07-.01-.13-.04-.2-.03-.07-.06-.12-.11-.15l-3.56-3.56c-.18-.2-.39-.34-.64-.44-.24-.09-.49-.14-.76-.14-.25,0-.5.05-.75.14-.25.09-.47.24-.67.44l-3.51,3.53c-.15.15-.27.32-.37.52-.1.2-.17.4-.2.6-.03.2-.03.4,0,.61.03.21.1.4.2.58l-1.44,1.44c-.28-.38-.49-.8-.62-1.26s-.18-.92-.15-1.38c.03-.46.15-.92.35-1.35.2-.44.47-.83.82-1.18l3.51-3.51c.4-.38.84-.67,1.33-.87s.99-.3,1.51-.3,1.01.1,1.51.3c.49.2.92.49,1.31.87l.27.27.27-.27c.4-.38.84-.67,1.33-.87.49-.2.99-.3,1.5-.3s1.02.1,1.51.3c.49.2.92.49,1.31.87l4.2,4.2c.38.38.67.82.87,1.32.2.5.3,1,.3,1.52s-.1,1.02-.3,1.5c-.2.49-.49.93-.87,1.31l-8.16,8.13c-.23.23-.5.41-.81.55-.31.13-.63.2-.96.2M10.88,46.31c.07,0,.13-.02.2-.05s.12-.07.15-.1l8.16-8.16c.2-.2.34-.42.43-.67.09-.25.14-.5.14-.75,0-.26-.05-.52-.14-.76-.09-.24-.24-.45-.43-.63l-4.23-4.23c-.18-.2-.39-.34-.63-.44-.24-.09-.49-.14-.76-.14-.25,0-.5.05-.75.14-.25.09-.47.24-.67.44l-.27.27,1.84,1.87c.25.23.43.5.55.8.12.3.17.61.17.94,0,.7-.24,1.28-.71,1.75-.47.47-1.06.71-1.75.71-.33,0-.65-.06-.96-.17-.31-.12-.58-.29-.81-.52l-1.86-1.84-4.35,4.35c-.05.05-.09.1-.11.16-.03.06-.04.12-.04.19,0,.13.05.25.15.36.1.11.21.16.35.16.07,0,.13-.02.2-.05s.12-.07.15-.1l3.38-3.38,1.39,1.39-3.36,3.38s-.09.1-.11.16c-.02.06-.04.12-.04.19,0,.13.05.25.15.35.1.1.22.15.35.15.07,0,.13-.02.2-.05.07-.03.12-.07.15-.1l3.38-3.36,1.39,1.39-3.36,3.38s-.09.08-.11.15c-.03.07-.04.13-.04.2,0,.13.05.25.15.35.1.1.22.15.35.15.07,0,.13-.01.19-.04.06-.02.11-.06.16-.11l3.38-3.36,1.39,1.39-3.38,3.38c-.05.05-.09.1-.11.16-.03.06-.04.12-.04.19,0,.13.05.25.16.35.11.1.23.15.36.15"/>
      <path class="cls-1" d="M11,9.95c.3,0,.55-.1.76-.31.21-.21.31-.46.31-.76,0-.28-.1-.53-.31-.75-.21-.22-.46-.32-.76-.32s-.55.11-.76.32c-.21.22-.31.47-.31.75,0,.3.1.55.31.76.21.21.46.31.76.31M11,14.95c-.97-.82-1.88-1.69-2.73-2.62-.85-.93-1.27-2.02-1.27-3.27,0-1.13.39-2.1,1.16-2.9.78-.8,1.72-1.2,2.84-1.2s2.06.4,2.84,1.2c.78.8,1.16,1.77,1.16,2.9,0,1.25-.43,2.34-1.28,3.27s-1.76,1.81-2.72,2.62M15.93,3.65c-.6-.45-1.23-.82-1.9-1.1-.67-.28-1.35-.47-2.05-.55V0c.98.08,1.92.31,2.83.69.9.38,1.74.88,2.52,1.51l-1.4,1.45ZM9.98,19.9c-2.55-.3-4.68-1.39-6.39-3.28-1.71-1.88-2.56-4.11-2.56-6.67s.85-4.82,2.56-6.7C5.3,1.37,7.43.28,9.98,0v2c-2,.28-3.66,1.18-4.97,2.68-1.32,1.5-1.98,3.26-1.98,5.27s.66,3.77,1.98,5.26c1.32,1.49,2.97,2.39,4.97,2.69v2ZM18.93,8.95c-.1-.75-.28-1.45-.55-2.11-.27-.66-.62-1.25-1.05-1.79l1.4-1.4c.63.73,1.15,1.55,1.54,2.45.39.9.63,1.85.71,2.85h-2.05ZM18.73,16.25l-1.4-1.4c.43-.55.78-1.15,1.05-1.81.27-.66.45-1.35.55-2.09h2.05c-.13,1.03-.39,2-.76,2.89-.38.89-.87,1.7-1.49,2.41M11.98,19.9v-2c.7-.1,1.38-.29,2.04-.58.66-.28,1.28-.64,1.86-1.08l1.45,1.45c-.78.62-1.62,1.11-2.52,1.49-.9.38-1.84.61-2.83.71"/>
      <path class="cls-1" d="M6,64.81c.55,0,1.02-.2,1.41-.59.39-.39.59-.86.59-1.41s-.2-1.02-.59-1.41c-.39-.39-.86-.59-1.41-.59s-1.02.2-1.41.59c-.39.39-.59.86-.59,1.41s.2,1.02.59,1.41c.39.39.86.59,1.41.59M6,66.81c1.1,0,1.98-.34,2.65-1.01.67-.68,1.07-1.34,1.2-1.99h6.15v3h2v-3h2v-2h-10.15c-.13-.65-.53-1.31-1.2-1.99-.67-.67-1.55-1.01-2.65-1.01s-2.04.39-2.83,1.17c-.78.78-1.17,1.73-1.17,2.83s.39,2.04,1.17,2.83c.78.78,1.73,1.17,2.83,1.17M6,68.81c-1.67,0-3.08-.58-4.25-1.75s-1.75-2.58-1.75-4.25.58-3.08,1.75-4.25,2.58-1.75,4.25-1.75c1.1,0,2.11.27,3.03.83.92.55,1.64,1.27,2.17,2.17h10.8v6h-2v3h-6v-3h-2.8c-.53.9-1.26,1.62-2.17,2.17-.92.55-1.93.83-3.03.83"/>
      <path class="cls-1" d="M13.5,81.31c-.55,0-1.02-.2-1.41-.59-.39-.39-.59-.86-.59-1.41s.2-1.02.59-1.41c.39-.39.86-.59,1.41-.59s1.02.2,1.41.59c.39.39.59.86.59,1.41s-.2,1.02-.59,1.41c-.39.39-.86.59-1.41.59M13,98.81v-6l-2.1-2-1,4.4-6.9-1.4.4-2,4.8,1,1.6-8.1-1.8.7v3.4h-2v-4.7l3.95-1.7c.58-.25,1.01-.41,1.29-.49.28-.08.53-.11.76-.11.35,0,.67.09.97.27.3.18.54.43.73.73l1,1.6c.43.7,1.02,1.27,1.76,1.73.74.45,1.59.67,2.54.67v2c-1.1,0-2.13-.23-3.09-.69-.96-.46-1.76-1.06-2.41-1.81l-.6,3,2.1,2v7.5h-2Z"/>
    </g>
  </g>
</svg>