<?xml version="1.0" encoding="UTF-8"?>
<svg id="Layer_2" data-name="Layer 2" xmlns="http://www.w3.org/2000/svg" xmlns:xlink="http://www.w3.org/1999/xlink" viewBox="0 0 833.67 343.23">
  <defs>
    <style>
      .cls-1 {
        fill: url(#_名称未設定グラデーション_20);
      }

      .cls-1, .cls-2, .cls-3, .cls-4, .cls-5, .cls-6, .cls-7 {
        stroke-width: 0px;
      }

      .cls-2 {
        fill: url(#gra-1);
      }

      .cls-3 {
        fill: url(#gra-1-5);
      }

      .cls-4 {
        fill: url(#gra-1-6);
      }

      .cls-5 {
        fill: url(#gra-1-2);
      }

      .cls-6 {
        fill: url(#gra-1-4);
      }

      .cls-7 {
        fill: url(#gra-1-3);
      }
    </style>
    <linearGradient id="gra-1" x1="743.84" y1="185.1" x2="833.67" y2="185.1" gradientUnits="userSpaceOnUse">
      <stop offset="0" stop-color="#fff" stop-opacity="0"/>
      <stop offset=".1" stop-color="#fff" stop-opacity=".04"/>
      <stop offset=".26" stop-color="#fff" stop-opacity=".13"/>
      <stop offset=".47" stop-color="#fff" stop-opacity=".29"/>
      <stop offset=".71" stop-color="#fff" stop-opacity=".5"/>
      <stop offset=".98" stop-color="#fff" stop-opacity=".78"/>
      <stop offset="1" stop-color="#fff" stop-opacity=".8"/>
    </linearGradient>
    <linearGradient id="gra-1-2" data-name="gra-1" x1="189.26" y1="181.43" x2="131.8" y2="280.96" xlink:href="#gra-1"/>
    <linearGradient id="gra-1-3" data-name="gra-1" x1="693.03" y1="201.63" x2="693.03" y2="68.5" xlink:href="#gra-1"/>
    <linearGradient id="gra-1-4" data-name="gra-1" x1="659.58" y1="11.62" x2="648.63" y2="30.58" xlink:href="#gra-1"/>
    <linearGradient id="gra-1-5" data-name="gra-1" x1="46.12" y1="254.04" x2="46.12" y2="329.24" xlink:href="#gra-1"/>
    <linearGradient id="_名称未設定グラデーション_20" data-name="名称未設定グラデーション 20" x1="635.02" y1="310.77" x2="658.33" y2="310.77" gradientUnits="userSpaceOnUse">
      <stop offset="0" stop-color="#fff" stop-opacity="0"/>
      <stop offset=".14" stop-color="#fff" stop-opacity=".04"/>
      <stop offset=".37" stop-color="#fff" stop-opacity=".13"/>
      <stop offset=".66" stop-color="#fff" stop-opacity=".29"/>
      <stop offset="1" stop-color="#fff" stop-opacity=".5"/>
    </linearGradient>
    <linearGradient id="gra-1-6" data-name="gra-1" x1="15.67" y1="45.29" x2="31.47" y2="54.42" xlink:href="#gra-1"/>
  </defs>
  <g id="Layer_1-2" data-name="Layer 1">
    <g>
      <polygon class="cls-2" points="743.84 212.18 833.67 167.44 786.15 158.03 743.84 212.18"/>
      <polygon class="cls-5" points="138.82 285.02 192.61 183.37 141.48 247.97 138.82 285.02"/>
      <polygon class="cls-7" points="678.17 158.03 718.65 201.63 667.41 68.5 678.17 158.03"/>
      <polygon class="cls-6" points="687.19 27.56 629.48 0 643.4 27.56 687.19 27.56"/>
      <polygon class="cls-3" points="12.89 254.04 79.36 329.24 60.88 286.88 12.89 254.04"/>
      <polygon class="cls-1" points="635.02 343.23 658.33 315.14 658.33 278.32 635.02 343.23"/>
      <polygon class="cls-4" points="0 72.43 42.35 24.52 31.58 54.23 0 72.43"/>
    </g>
  </g>
</svg>