<?xml version="1.0" encoding="UTF-8"?>
<svg id="Layer_2" data-name="Layer 2" xmlns="http://www.w3.org/2000/svg" xmlns:xlink="http://www.w3.org/1999/xlink" viewBox="0 0 768.63 344.13">
  <defs>
    <style>
      .cls-1 {
        fill: url(#_名称未設定グラデーション_20);
      }

      .cls-1, .cls-2, .cls-3, .cls-4, .cls-5, .cls-6, .cls-7, .cls-8 {
        stroke-width: 0px;
      }

      .cls-2 {
        fill: url(#_名称未設定グラデーション_19);
      }

      .cls-3 {
        fill: url(#gra-1);
      }

      .cls-4 {
        fill: url(#gra-1-5);
      }

      .cls-5 {
        fill: url(#gra-1-6);
      }

      .cls-6 {
        fill: url(#gra-1-2);
      }

      .cls-7 {
        fill: url(#gra-1-4);
      }

      .cls-8 {
        fill: url(#gra-1-3);
      }
    </style>
    <linearGradient id="_名称未設定グラデーション_20" data-name="名称未設定グラデーション 20" x1="42.09" y1="104.77" x2="-7.71" y2="191.04" gradientUnits="userSpaceOnUse">
      <stop offset="0" stop-color="#fff" stop-opacity="0"/>
      <stop offset=".14" stop-color="#fff" stop-opacity=".04"/>
      <stop offset=".37" stop-color="#fff" stop-opacity=".13"/>
      <stop offset=".66" stop-color="#fff" stop-opacity=".29"/>
      <stop offset="1" stop-color="#fff" stop-opacity=".5"/>
    </linearGradient>
    <linearGradient id="gra-1" x1="82.83" y1="16.19" x2="204.72" y2="16.19" gradientUnits="userSpaceOnUse">
      <stop offset="0" stop-color="#fff" stop-opacity="0"/>
      <stop offset=".1" stop-color="#fff" stop-opacity=".04"/>
      <stop offset=".26" stop-color="#fff" stop-opacity=".13"/>
      <stop offset=".47" stop-color="#fff" stop-opacity=".29"/>
      <stop offset=".71" stop-color="#fff" stop-opacity=".5"/>
      <stop offset=".98" stop-color="#fff" stop-opacity=".78"/>
      <stop offset="1" stop-color="#fff" stop-opacity=".8"/>
    </linearGradient>
    <linearGradient id="gra-1-2" data-name="gra-1" x1="604.16" y1="286.03" x2="625.15" y2="286.03" xlink:href="#gra-1"/>
    <linearGradient id="gra-1-3" data-name="gra-1" x1="71.73" y1="199.8" x2="128.97" y2="199.8" xlink:href="#gra-1"/>
    <linearGradient id="gra-1-4" data-name="gra-1" x1="152.28" y1="323.35" x2="200.89" y2="323.35" xlink:href="#gra-1"/>
    <linearGradient id="gra-1-5" data-name="gra-1" x1="584.17" y1="320.95" x2="577.31" y2="332.83" xlink:href="#gra-1"/>
    <linearGradient id="gra-1-6" data-name="gra-1" x1="710.32" y1="283.64" x2="768.63" y2="283.64" xlink:href="#gra-1"/>
    <linearGradient id="_名称未設定グラデーション_19" data-name="名称未設定グラデーション 19" x1="670.36" y1="63.15" x2="648.58" y2="52.05" gradientUnits="userSpaceOnUse">
      <stop offset="0" stop-color="#fff" stop-opacity="0"/>
      <stop offset=".12" stop-color="#fff" stop-opacity=".04"/>
      <stop offset=".33" stop-color="#fff" stop-opacity=".13"/>
      <stop offset=".58" stop-color="#fff" stop-opacity=".29"/>
      <stop offset=".87" stop-color="#fff" stop-opacity=".5"/>
      <stop offset="1" stop-color="#fff" stop-opacity=".6"/>
    </linearGradient>
  </defs>
  <g id="Layer_1-2" data-name="Layer 1">
    <g>
      <polygon class="cls-1" points="27.1 211.14 7.28 84.67 0 194.98 27.1 211.14"/>
      <polygon class="cls-3" points="104.17 3.35 82.83 32.38 204.72 0 104.17 3.35"/>
      <polygon class="cls-6" points="625.15 321.69 610.54 250.38 604.16 294.63 625.15 321.69"/>
      <polygon class="cls-8" points="71.73 217.05 128.97 188.54 98.69 182.54 71.73 217.05"/>
      <polygon class="cls-7" points="200.89 302.57 152.28 344.13 167.08 316.2 200.89 302.57"/>
      <polygon class="cls-4" points="611.77 336.89 554.07 309.33 572.72 330.18 611.77 336.89"/>
      <polygon class="cls-5" points="747.24 290.63 768.63 276.66 710.32 278.82 747.24 290.63"/>
      <polygon class="cls-2" points="683.77 36.82 635.16 78.38 649.96 50.45 683.77 36.82"/>
    </g>
  </g>
</svg>