<?xml version="1.0" encoding="UTF-8"?>
<svg id="Layer_2" data-name="Layer 2" xmlns="http://www.w3.org/2000/svg" viewBox="0 0 454.3 297.5">
  <defs>
    <style>
      .cls-1 {
        fill: none;
        stroke: #1c1c1c;
        stroke-width: .57px;
      }

      .cls-2, .cls-3 {
        stroke-width: 0px;
      }

      .cls-3 {
        fill: #fff;
      }
    </style>
  </defs>
  <g id="Layer_1-2" data-name="Layer 1">
    <g id="arrow">
      <g>
        <path class="cls-3" d="M2.47.28h8.31c1.21,0,2.19.98,2.19,2.19v8.31c0,1.21-.98,2.19-2.19,2.19H2.47c-1.21,0-2.19-.98-2.19-2.19V2.47C.28,1.26,1.26.28,2.47.28Z"/>
        <path class="cls-1" d="M2.47.28h8.31c1.21,0,2.19.98,2.19,2.19v8.31c0,1.21-.98,2.19-2.19,2.19H2.47c-1.21,0-2.19-.98-2.19-2.19V2.47C.28,1.26,1.26.28,2.47.28Z"/>
        <polygon class="cls-2" points="4.32 8.57 4.44 8.57 4.56 8.45 4.56 5.65 4.68 5.65 8.93 9.91 9.06 9.91 9.91 9.06 9.91 8.93 5.65 4.68 5.65 4.56 8.45 4.56 8.57 4.44 8.57 4.32 7.72 3.47 7.48 3.35 3.59 3.35 3.35 3.59 3.35 7.48 3.47 7.72 4.32 8.57"/>
      </g>
      <g>
        <rect class="cls-3" x="441.33" y=".28" width="12.68" height="12.68" rx="2.19" ry="2.19"/>
        <rect class="cls-1" x="441.33" y=".28" width="12.68" height="12.68" rx="2.19" ry="2.19"/>
        <polygon class="cls-2" points="445.73 4.32 445.73 4.44 445.85 4.56 448.64 4.56 448.64 4.68 444.39 8.93 444.39 9.06 445.24 9.91 445.36 9.91 449.61 5.65 449.74 5.65 449.74 8.45 449.86 8.57 449.98 8.57 450.83 7.72 450.95 7.48 450.95 3.59 450.71 3.35 446.82 3.35 446.58 3.47 445.73 4.32"/>
      </g>
      <g>
        <rect class="cls-3" x=".28" y="284.53" width="12.68" height="12.68" rx="2.19" ry="2.19"/>
        <rect class="cls-1" x=".28" y="284.53" width="12.68" height="12.68" rx="2.19" ry="2.19"/>
        <polygon class="cls-2" points="8.57 293.18 8.57 293.06 8.45 292.94 5.65 292.94 5.65 292.81 9.91 288.56 9.91 288.44 9.06 287.59 8.93 287.59 4.68 291.84 4.56 291.84 4.56 289.05 4.44 288.93 4.32 288.93 3.47 289.78 3.35 290.02 3.35 293.91 3.59 294.15 7.48 294.15 7.72 294.03 8.57 293.18"/>
      </g>
      <g>
        <rect class="cls-3" x="441.33" y="284.53" width="12.68" height="12.68" rx="2.19" ry="2.19"/>
        <rect class="cls-1" x="441.33" y="284.53" width="12.68" height="12.68" rx="2.19" ry="2.19"/>
        <polygon class="cls-2" points="449.98 288.93 449.86 288.93 449.74 289.05 449.74 291.84 449.62 291.84 445.36 287.59 445.24 287.59 444.39 288.44 444.39 288.56 448.64 292.81 448.64 292.94 445.85 292.94 445.73 293.06 445.73 293.18 446.58 294.03 446.82 294.15 450.71 294.15 450.95 293.91 450.95 290.02 450.83 289.78 449.98 288.93"/>
      </g>
    </g>
  </g>
</svg>