<?xml version="1.0" encoding="UTF-8"?>
<svg id="Layer_2" data-name="Layer 2" xmlns="http://www.w3.org/2000/svg" viewBox="0 0 421.52 421.52">
  <defs>
    <style>
      .cls-1 {
        fill: none;
        stroke: #010101;
        stroke-width: .57px;
      }
    </style>
  </defs>
  <g id="Layer_1-2" data-name="Layer 1">
    <path class="cls-1" d="M375.4,393.31c3.12-2.81,6.18-5.72,9.18-8.73,3-3,5.91-6.06,8.73-9.18M28.21,375.4c2.81,3.12,5.72,6.18,8.73,9.18,3,3,6.06,5.91,9.18,8.73M46.12,28.22c-3.12,2.81-6.18,5.72-9.18,8.73-3,3-5.91,6.06-8.73,9.18M393.31,46.12c-2.81-3.12-5.72-6.18-8.73-9.18-3-3-6.06-5.91-9.18-8.73"/>
    <path class="cls-1" d="M393.27,421.31c4.96-4.31,9.8-8.82,14.51-13.53,4.71-4.71,9.22-9.56,13.53-14.51M.21,393.27c4.31,4.96,8.81,9.8,13.53,14.51,4.71,4.71,9.55,9.22,14.51,13.53M28.26.21c-4.96,4.31-9.8,8.82-14.51,13.53C9.03,18.46,4.52,23.3.21,28.26M421.31,28.26c-4.31-4.96-8.82-9.8-13.53-14.51-4.71-4.71-9.56-9.22-14.51-13.53"/>
  </g>
</svg>