<svg width="1019" height="1107" viewBox="0 0 1019 1107" fill="none" xmlns="http://www.w3.org/2000/svg">
<path d="M72.1454 489.748L9.73741 500.984" stroke="white" stroke-width="4" stroke-linecap="square"/>
<path d="M33.4043 455.061L49.1448 534.925" stroke="white" stroke-width="4" stroke-linecap="square"/>
<path d="M233.961 475.156L234.546 477.068L238.371 475.897L237.785 473.985L233.961 475.156ZM195.789 338.826C194.813 338.308 193.602 338.678 193.084 339.654L184.64 355.55C184.122 356.526 184.493 357.737 185.469 358.255C186.444 358.773 187.655 358.402 188.173 357.427L195.679 343.297L209.809 350.802C210.784 351.32 211.995 350.95 212.513 349.974C213.032 348.999 212.661 347.788 211.685 347.27L195.789 338.826ZM237.785 473.985L196.763 340.007L192.938 341.178L233.961 475.156L237.785 473.985Z" fill="white"/>
<path d="M196.968 229.343L195.255 230.374L197.318 233.801L199.031 232.769L196.968 229.343ZM348.635 140.357L349.304 138.472L348.413 138.156L347.603 138.644L348.635 140.357ZM582.286 224.734C583.283 224.259 583.707 223.065 583.232 222.068L575.491 205.817C575.016 204.82 573.822 204.397 572.825 204.872C571.828 205.347 571.405 206.54 571.88 207.538L578.76 221.983L564.316 228.863C563.318 229.338 562.895 230.532 563.37 231.529C563.845 232.526 565.039 232.949 566.036 232.474L582.286 224.734ZM199.031 232.769L349.667 142.071L347.603 138.644L196.968 229.343L199.031 232.769ZM347.966 142.242L580.758 224.813L582.095 221.043L349.304 138.472L347.966 142.242Z" fill="white"/>
<path d="M238.21 625.418L236.419 624.53L234.641 628.113L236.433 629.002L238.21 625.418ZM418.989 717.344L420.748 718.297L421.734 716.474L419.878 715.553L418.989 717.344ZM310.248 918.222L309.244 919.952L311.026 920.985L312.006 919.174L310.248 918.222ZM106.363 800.023L104.526 799.232L103.824 800.863L105.36 801.753L106.363 800.023ZM137.387 727.913L138.465 726.229L136.481 724.959L135.55 727.123L137.387 727.913ZM238.962 794.612C240.041 794.375 240.724 793.308 240.487 792.229L236.629 774.648C236.392 773.569 235.326 772.886 234.247 773.123C233.168 773.36 232.485 774.426 232.722 775.505L236.151 791.133L220.523 794.562C219.444 794.799 218.762 795.866 218.998 796.945C219.235 798.024 220.302 798.706 221.38 798.47L238.962 794.612ZM236.433 629.002L418.1 719.136L419.878 715.553L238.21 625.418L236.433 629.002ZM417.23 716.392L308.489 917.27L312.006 919.174L420.748 718.297L417.23 716.392ZM311.251 916.492L107.366 798.292L105.36 801.753L309.244 919.952L311.251 916.492ZM108.2 800.813L139.224 728.704L135.55 727.123L104.526 799.232L108.2 800.813ZM136.309 729.598L237.455 794.342L239.612 790.974L138.465 726.229L136.309 729.598Z" fill="white"/>
<path d="M947.599 770.678L908.922 729L886 782.278L947.599 770.678Z" stroke="white" stroke-width="4" stroke-linecap="square"/>
<path d="M487.734 359.251L439.893 392.011L450.36 511.909L553.798 441.017L487.734 359.251Z" stroke="white" stroke-width="4" stroke-linecap="square"/>
<path d="M692.598 507.041L690.639 507.442L691.442 511.361L693.402 510.959L692.598 507.041ZM956.5 455H958.5V452.549L956.098 453.041L956.5 455ZM956.5 532L956.958 533.947L958.5 533.584V532H956.5ZM810.299 564.947C809.718 565.886 810.008 567.119 810.947 567.701L826.252 577.175C827.191 577.756 828.424 577.466 829.005 576.527C829.587 575.588 829.297 574.355 828.357 573.774L814.753 565.352L823.175 551.748C823.756 550.809 823.466 549.576 822.527 548.995C821.588 548.413 820.355 548.703 819.774 549.643L810.299 564.947ZM693.402 510.959L956.902 456.959L956.098 453.041L692.598 507.041L693.402 510.959ZM954.5 455V532H958.5V455H954.5ZM956.042 530.053L811.542 564.053L812.458 567.947L956.958 533.947L956.042 530.053Z" fill="white"/>
<path d="M982 948H813L773 1080L982 948Z" stroke="white" stroke-width="4" stroke-linecap="square"/>
<path d="M617.69 93.6576L713.266 62.5872L649.141 31.9093L680.984 129.863" stroke="white" stroke-width="4" stroke-linecap="square"/>
<path d="M91.6429 6L133.107 92.8633L55 48.5733L163 29.0033L66.5714 109L91.6429 6Z" stroke="white" stroke-width="4" stroke-linecap="square"/>
<path d="M802.953 275.916L783.261 233.48L818.043 260.982L846.942 232.773L839.144 277.901L865.859 302.095L830.659 299.028L817.885 336.785L806.773 301.309L772.911 297.64L802.953 275.916Z" stroke="white" stroke-width="4" stroke-linecap="square"/>
<path d="M666.152 656.754L619.754 641L604 687.398L650.398 703.152L666.152 656.754Z" stroke="white" stroke-width="4" stroke-linecap="square"/>
<path d="M6.65243 1065.03L4.68286 1065.38L5.378 1069.32L7.34757 1068.97L6.65243 1065.03ZM212.638 1032.15C213.272 1031.24 213.052 1029.99 212.147 1029.36L197.401 1019.04C196.496 1018.41 195.249 1018.63 194.615 1019.53C193.982 1020.44 194.202 1021.68 195.107 1022.32L208.215 1031.49L199.039 1044.6C198.406 1045.5 198.626 1046.75 199.531 1047.38C200.436 1048.02 201.683 1047.8 202.316 1046.89L212.638 1032.15ZM7.34757 1068.97L211.348 1032.97L210.652 1029.03L6.65243 1065.03L7.34757 1068.97Z" fill="white"/>
<path d="M464.646 1031L434.844 1043.45L423 1084.63L464.646 1104L504 1084.63V1043.45L464.646 1031Z" stroke="white" stroke-width="4" stroke-linecap="square"/>
<path d="M49.9579 288.336L49.6978 284.469L53.0223 284.245L51.8608 266.978L49.0112 267.17L48.7511 263.303L55.8411 262.826L57.2627 283.96L60.5872 283.736L60.8473 287.604L49.9579 288.336Z" fill="white"/>
<path d="M92.2827 978.124L94.0279 973.223L109.981 966.633L111.008 963.751L110.1 961.84L104.175 959.729L101.004 961.235L99.3243 957.641L103.668 955.579L113.213 958.978L115.502 963.799L113.392 969.725L98.1312 976.092L109.886 980.278L108.586 983.93L92.2827 978.124Z" fill="white"/>
<path d="M88.3149 607.733L83.5146 607.454L83.6952 603.515L87.2248 603.696L92.8117 598.722L92.9344 596.61L89.9503 593.258L87.8382 593.135L82.3782 597.996L79.8914 595.202L85.3514 590.342L85.474 588.23L83.2359 585.716L81.1238 585.593L76.0194 590.137L75.7905 593.664L71.8571 593.387L72.1359 588.587L80.11 581.488L85.4636 581.775L89.3973 586.194L89.1851 589.433L92.4266 589.597L97.1063 594.854L96.7714 600.204L88.3149 607.733Z" fill="white"/>
<path d="M455.641 601.128L450.873 600.176L448.516 611.979L444.715 611.219L431.068 596.22L431.907 592.019L447.911 595.216L448.484 592.348L452.285 593.107L451.712 595.975L456.48 596.927L455.641 601.128ZM445.747 606.051L447.072 599.417L438.103 597.625L445.747 606.051Z" fill="white"/>
<path d="M442.941 889.454L440.74 885.179L444.223 883.332L445.863 886.463L452.63 888.629L454.511 887.661L456.191 882.415L455.222 880.534L444.472 877.092L448.38 864.885L463.308 869.664L462.126 873.356L451.246 869.872L449.66 874.826L458.241 877.574L460.716 882.329L458.145 890.36L453.368 892.793L442.941 889.454Z" fill="white"/>
<path d="M379.511 248.342L374.572 246.319L367.806 230.169L369.829 225.23L380.523 220.75L384.972 222.572L383.523 226.239L380.243 224.922L373.124 227.904L372.291 229.875L374.464 234.974L375.391 232.963L383.827 229.43L388.797 231.439L391.976 239.028L389.922 243.981L379.511 248.342ZM379.916 244.117L386.658 241.293L387.46 239.335L385.411 234.443L383.44 233.61L376.867 236.4L375.943 238.593L377.958 243.315L379.916 244.117Z" fill="white"/>
<path d="M909.83 205.099L922.132 186.037L922.228 185.193L910.607 183.869L911.046 180.018L927.396 181.881L926.853 186.644L914.729 205.657L909.83 205.099Z" fill="white"/>
<path d="M666.195 269.508L664.638 264.403L668.026 258.041L671.123 257.071L670.492 255.001L673.528 249.299L678.634 247.742L687.486 252.457L689.043 257.562L686.007 263.264L683.937 263.895L684.861 267.006L681.473 273.368L676.368 274.926L666.195 269.508ZM675.281 257.436L681.313 260.649L682.831 260.186L684.605 256.855L683.988 254.831L678.616 251.97L676.592 252.587L674.819 255.918L675.281 257.436ZM669.693 267.134L676.385 270.698L678.409 270.08L680.503 266.149L679.885 264.125L673.193 260.561L671.17 261.179L669.106 265.126L669.693 267.134Z" fill="white"/>
<path d="M772.302 907.161L767.838 905.309L769.354 901.643L772.621 902.991L779.421 900.218L780.241 898.268L778.148 893.136L777.202 895.138L768.985 898.489L764.065 896.42L760.958 888.801L763.027 883.881L773.227 879.721L778.147 881.79L784.76 898.003L782.691 902.923L772.302 907.161ZM769.399 894.281L775.569 891.764L776.595 889.327L774.733 884.762L772.782 883.942L766.266 886.599L765.445 888.55L767.48 893.448L769.399 894.281Z" fill="white"/>
<path d="M980.016 893.359L981.426 889.749L984.529 890.961L990.826 874.841L988.166 873.802L989.576 870.192L996.195 872.777L988.488 892.507L991.592 893.72L990.181 897.33L980.016 893.359ZM993.654 898.687L995.065 895.076L998.168 896.289L1004.47 880.169L1001.8 879.13L1003.22 875.52L1009.83 878.105L1002.13 897.835L1005.23 899.048L1003.82 902.658L993.654 898.687Z" fill="white"/>
<path d="M560.538 968.656L561.816 964.996L564.962 966.095L570.666 949.756L567.969 948.814L569.247 945.155L575.956 947.497L568.974 967.495L572.12 968.594L570.843 972.253L560.538 968.656ZM577.926 974.726L575.607 969.919L581.378 953.387L586.185 951.068L596.778 954.766L599.097 959.573L593.326 976.105L588.519 978.424L577.926 974.726ZM581.052 971.856L587.89 974.243L589.795 973.323L594.603 959.552L593.683 957.647L586.814 955.249L584.908 956.168L580.133 969.95L581.052 971.856Z" fill="white"/>
</svg>
