<svg width="1247" height="1243" viewBox="0 0 1247 1243" fill="none" xmlns="http://www.w3.org/2000/svg">
<path d="M293.093 101.687L230.685 112.923" stroke="white" stroke-width="4" stroke-linecap="square"/>
<path d="M254.352 67L270.092 146.864" stroke="white" stroke-width="4" stroke-linecap="square"/>
<path d="M393.908 499.156L394.493 501.068L398.318 499.897L397.733 497.985L393.908 499.156ZM355.736 362.826C354.761 362.308 353.55 362.678 353.032 363.654L344.588 379.55C344.07 380.526 344.44 381.737 345.416 382.255C346.391 382.773 347.602 382.402 348.12 381.427L355.626 367.297L369.756 374.802C370.732 375.32 371.943 374.95 372.461 373.974C372.979 372.999 372.608 371.788 371.633 371.27L355.736 362.826ZM397.733 497.985L356.71 364.007L352.886 365.178L393.908 499.156L397.733 497.985Z" fill="white"/>
<path d="M356.915 253.343L355.202 254.374L357.265 257.801L358.979 256.769L356.915 253.343ZM508.582 164.357L509.251 162.472L508.36 162.156L507.551 162.644L508.582 164.357ZM742.234 248.734C743.231 248.259 743.654 247.065 743.179 246.068L735.438 229.817C734.963 228.82 733.77 228.397 732.773 228.872C731.775 229.347 731.352 230.54 731.827 231.538L738.708 245.983L724.263 252.863C723.266 253.338 722.842 254.532 723.317 255.529C723.792 256.526 724.986 256.949 725.983 256.474L742.234 248.734ZM358.979 256.769L509.614 166.071L507.551 162.644L356.915 253.343L358.979 256.769ZM507.914 166.242L740.705 248.813L742.042 245.043L509.251 162.472L507.914 166.242Z" fill="white"/>
<path d="M398.158 649.418L396.366 648.53L394.588 652.113L396.38 653.002L398.158 649.418ZM578.936 741.344L580.695 742.297L581.682 740.474L579.825 739.553L578.936 741.344ZM470.195 942.222L469.192 943.952L470.973 944.985L471.954 943.174L470.195 942.222ZM266.31 824.023L264.473 823.232L263.772 824.863L265.307 825.753L266.31 824.023ZM297.334 751.913L298.413 750.229L296.428 748.959L295.497 751.123L297.334 751.913ZM398.909 818.612C399.988 818.375 400.671 817.308 400.434 816.229L396.576 798.648C396.34 797.569 395.273 796.886 394.194 797.123C393.115 797.36 392.433 798.426 392.669 799.505L396.099 815.133L380.47 818.562C379.392 818.799 378.709 819.866 378.946 820.945C379.182 822.024 380.249 822.706 381.328 822.47L398.909 818.612ZM396.38 653.002L578.047 743.136L579.825 739.553L398.158 649.418L396.38 653.002ZM577.177 740.392L468.436 941.27L471.954 943.174L580.695 742.297L577.177 740.392ZM471.198 940.492L267.313 822.292L265.307 825.753L469.192 943.952L471.198 940.492ZM268.148 824.813L299.172 752.704L295.497 751.123L264.473 823.232L268.148 824.813ZM296.256 753.598L397.403 818.342L399.559 814.974L298.413 750.229L296.256 753.598Z" fill="white"/>
<path d="M1107.55 794.678L1068.87 753L1045.95 806.278L1107.55 794.678Z" stroke="white" stroke-width="4" stroke-linecap="square"/>
<path d="M647.681 383.251L599.84 416.011L610.307 535.909L713.745 465.017L647.681 383.251Z" stroke="white" stroke-width="4" stroke-linecap="square"/>
<path d="M852.546 531.041L850.586 531.442L851.39 535.361L853.349 534.959L852.546 531.041ZM1116.45 479H1118.45V476.549L1116.05 477.041L1116.45 479ZM1116.45 556L1116.91 557.947L1118.45 557.584V556H1116.45ZM970.247 588.947C969.665 589.886 969.955 591.119 970.895 591.701L986.199 601.175C987.139 601.756 988.371 601.466 988.953 600.527C989.534 599.588 989.244 598.355 988.305 597.774L974.701 589.352L983.122 575.748C983.704 574.809 983.414 573.576 982.474 572.995C981.535 572.413 980.303 572.703 979.721 573.643L970.247 588.947ZM853.349 534.959L1116.85 480.959L1116.05 477.041L852.546 531.041L853.349 534.959ZM1114.45 479V556H1118.45V479H1114.45ZM1115.99 554.053L971.489 588.053L972.405 591.947L1116.91 557.947L1115.99 554.053Z" fill="white"/>
<path d="M1141.95 972H972.947L932.947 1104L1141.95 972Z" stroke="white" stroke-width="4" stroke-linecap="square"/>
<path d="M777.637 117.658L873.214 86.5872L809.088 55.9093L840.931 153.863" stroke="white" stroke-width="4" stroke-linecap="square"/>
<path d="M198.643 417L240.107 503.863L162 459.573L270 440.003L173.571 520L198.643 417Z" stroke="white" stroke-width="4" stroke-linecap="square"/>
<path d="M962.9 299.916L943.209 257.48L977.991 284.982L1006.89 256.773L999.091 301.901L1025.81 326.095L990.606 323.028L977.833 360.785L966.72 325.309L932.858 321.64L962.9 299.916Z" stroke="white" stroke-width="4" stroke-linecap="square"/>
<path d="M826.1 680.754L779.701 665L763.947 711.398L810.345 727.152L826.1 680.754Z" stroke="white" stroke-width="4" stroke-linecap="square"/>
<path d="M166.6 1089.03L164.63 1089.38L165.325 1093.32L167.295 1092.97L166.6 1089.03ZM372.586 1056.15C373.219 1055.24 372.999 1053.99 372.094 1053.36L357.348 1043.04C356.443 1042.41 355.196 1042.63 354.563 1043.53C353.929 1044.44 354.149 1045.68 355.054 1046.32L368.162 1055.49L358.986 1068.6C358.353 1069.5 358.573 1070.75 359.478 1071.38C360.383 1072.02 361.63 1071.8 362.263 1070.89L372.586 1056.15ZM167.295 1092.97L371.295 1056.97L370.6 1053.03L166.6 1089.03L167.295 1092.97Z" fill="white"/>
<path d="M580.646 1049L550.844 1061.45L539 1102.63L580.646 1122L620 1102.63V1061.45L580.646 1049Z" stroke="white" stroke-width="4" stroke-linecap="square"/>
<path d="M209.905 312.336L209.645 308.469L212.97 308.245L211.808 290.978L208.958 291.17L208.698 287.303L215.788 286.826L217.21 307.96L220.534 307.736L220.795 311.604L209.905 312.336Z" fill="white"/>
<path d="M252.23 1002.12L253.975 997.223L269.928 990.633L270.955 987.751L270.048 985.84L264.122 983.729L260.951 985.235L259.272 981.641L263.615 979.579L273.16 982.978L275.449 987.799L273.339 993.725L258.078 1000.09L269.833 1004.28L268.533 1007.93L252.23 1002.12Z" fill="white"/>
<path d="M248.262 631.733L243.462 631.454L243.642 627.515L247.172 627.696L252.759 622.722L252.882 620.61L249.898 617.258L247.785 617.135L242.325 621.996L239.839 619.202L245.299 614.342L245.421 612.23L243.183 609.716L241.071 609.593L235.967 614.137L235.738 617.664L231.804 617.387L232.083 612.587L240.057 605.488L245.411 605.775L249.345 610.194L249.132 613.433L252.374 613.597L257.054 618.854L256.719 624.204L248.262 631.733Z" fill="white"/>
<path d="M615.588 625.128L610.82 624.176L608.463 635.979L604.662 635.219L591.016 620.22L591.855 616.019L607.859 619.216L608.431 616.348L612.232 617.107L611.659 619.975L616.427 620.927L615.588 625.128ZM605.694 630.051L607.019 623.417L598.051 621.625L605.694 630.051Z" fill="white"/>
<path d="M602.888 913.454L600.687 909.179L604.17 907.332L605.81 910.463L612.577 912.629L614.458 911.661L616.138 906.415L615.169 904.534L604.419 901.092L608.327 888.885L623.255 893.664L622.073 897.356L611.193 893.872L609.607 898.826L618.188 901.574L620.664 906.329L618.093 914.36L613.315 916.793L602.888 913.454Z" fill="white"/>
<path d="M539.458 272.342L534.519 270.319L527.754 254.169L529.776 249.23L540.47 244.75L544.92 246.572L543.47 250.239L540.19 248.922L533.072 251.904L532.238 253.875L534.411 258.974L535.338 256.963L543.774 253.43L548.745 255.439L551.924 263.028L549.869 267.981L539.458 272.342ZM539.863 268.117L546.606 265.293L547.407 263.335L545.358 258.443L543.387 257.61L536.815 260.4L535.89 262.593L537.905 267.315L539.863 268.117Z" fill="white"/>
<path d="M1069.78 229.099L1082.08 210.037L1082.18 209.193L1070.55 207.869L1070.99 204.018L1087.34 205.881L1086.8 210.644L1074.68 229.657L1069.78 229.099Z" fill="white"/>
<path d="M826.142 293.508L824.585 288.403L827.973 282.041L831.07 281.071L830.439 279.001L833.476 273.299L838.581 271.742L847.434 276.457L848.991 281.562L845.954 287.264L843.885 287.895L844.808 291.006L841.42 297.368L836.315 298.926L826.142 293.508ZM835.229 281.436L841.261 284.649L842.778 284.186L844.552 280.855L843.935 278.831L838.563 275.97L836.54 276.587L834.766 279.918L835.229 281.436ZM829.641 291.134L836.333 294.698L838.356 294.08L840.45 290.149L839.833 288.125L833.141 284.561L831.117 285.179L829.053 289.126L829.641 291.134Z" fill="white"/>
<path d="M932.249 931.161L927.785 929.309L929.301 925.643L932.568 926.991L939.368 924.218L940.188 922.268L938.095 917.136L937.149 919.138L928.933 922.489L924.013 920.42L920.905 912.801L922.975 907.881L933.175 903.721L938.095 905.79L944.707 922.003L942.638 926.923L932.249 931.161ZM929.346 918.281L935.517 915.764L936.542 913.327L934.68 908.762L932.73 907.942L926.213 910.599L925.393 912.55L927.427 917.448L929.346 918.281Z" fill="white"/>
<path d="M1139.96 917.359L1141.37 913.749L1144.48 914.961L1150.77 898.841L1148.11 897.802L1149.52 894.192L1156.14 896.777L1148.44 916.507L1151.54 917.72L1150.13 921.33L1139.96 917.359ZM1153.6 922.687L1155.01 919.076L1158.12 920.289L1164.41 904.169L1161.75 903.13L1163.16 899.52L1169.78 902.105L1162.07 921.835L1165.18 923.048L1163.77 926.658L1153.6 922.687Z" fill="white"/>
<path d="M720.486 992.656L721.763 988.996L724.909 990.095L730.613 973.756L727.916 972.814L729.194 969.155L735.903 971.497L728.921 991.495L732.067 992.594L730.79 996.253L720.486 992.656ZM737.873 998.726L735.554 993.919L741.325 977.387L746.132 975.068L756.725 978.766L759.044 983.573L753.273 1000.1L748.466 1002.42L737.873 998.726ZM741 995.856L747.837 998.243L749.743 997.323L754.55 983.552L753.631 981.647L746.761 979.249L744.856 980.168L740.08 993.95L741 995.856Z" fill="white"/>
<path d="M430.879 363L558.879 355" stroke="white" stroke-width="4" stroke-linecap="square"/>
<path d="M499.172 334L457.7 417.232" stroke="white" stroke-width="4" stroke-linecap="square"/>
<path d="M484.379 365.678L554.978 410.982" stroke="white" stroke-width="4" stroke-linecap="square"/>
<path d="M100 774.5L146 748.5" stroke="white" stroke-width="4" stroke-linecap="square"/>
<path d="M201 777L128 743" stroke="white" stroke-width="4" stroke-linecap="square"/>
<path d="M134.5 780L162 743.5" stroke="white" stroke-width="4" stroke-linecap="square"/>
<path d="M123.5 723.498L146.775 734L159.782 731.445L174.5 701.926L156.701 669L141.983 701.926L123.5 683.476V723.498Z" stroke="white" stroke-width="4" stroke-linecap="square"/>
<path d="M609.335 65.3216L576.996 54.8237L557.812 28.0943L533.936 48.205L551.335 69.098L549.515 98.9968L590.274 154.809L624.557 151.219L636.068 127.094L598.892 84.536L624.506 104.416L633.609 95.8058L609.335 65.3216Z" stroke="white" stroke-width="4" stroke-linecap="square"/>
<path d="M596.997 104.948L628.893 139.484L625.188 150.897L588.382 115.294" stroke="white" stroke-width="4" stroke-linecap="square"/>
<path d="M585.807 129.703L604.491 153.116" stroke="white" stroke-width="4" stroke-linecap="square"/>
<path d="M1037 90.9773L1066.65 70L1118 96.3561L1161.41 70" stroke="white" stroke-width="4" stroke-linecap="square"/>
<path d="M1048.12 100.659L1068.76 90.1704L1121.44 117.333L1164.85 90.1704" stroke="white" stroke-width="4" stroke-linecap="square"/>
<path d="M1041.23 126.477L1067.97 115.989L1120.12 141L1167.5 115.989" stroke="white" stroke-width="4" stroke-linecap="square"/>
<path d="M484.054 1192.6L355.094 1164.33L352.451 1175.42L376.451 1181.14L372 1199.82L395.201 1205.35L399.652 1186.67L437.653 1195.73L433.201 1214.41L452.402 1218.98L456.853 1200.31L480.854 1206.03L484.054 1192.6Z" stroke="white" stroke-width="4" stroke-linecap="square"/>
<path d="M28 207L92 201" stroke="white" stroke-width="4" stroke-linecap="square"/>
<path d="M27 222L103 214" stroke="white" stroke-width="4" stroke-linecap="square"/>
<path d="M36 207V268" stroke="white" stroke-width="4" stroke-linecap="square"/>
<path d="M79 204L85 268" stroke="white" stroke-width="4" stroke-linecap="square"/>
<path d="M798.981 464.706L795.012 430.583L774 408.681L795.012 396L810.654 425.742V464.706L828.397 459.403L834 471.622L798.981 479V464.706Z" stroke="white" stroke-width="4" stroke-linecap="square"/>
<path d="M1121.96 1130.44L1090.49 1151.72L1082.46 1184L1108.24 1216.38L1141.59 1222.86L1170.99 1202.99L1177.42 1169.63L1154.31 1135.43L1121.96 1130.44Z" stroke="white" stroke-width="4" stroke-linecap="square"/>
<path d="M1100.2 1146.88L1115.71 1191.08L1154.37 1215.52M1118.02 1134.84L1149.73 1165.33L1172.19 1203.48M1159.34 1142.87L1118.54 1162.5L1087.48 1191.43M1100.54 1210.75L1142.74 1193.04L1172.4 1162.19" stroke="white" stroke-width="4" stroke-linecap="square"/>
<path d="M445 769.21L453.373 752.502L464.378 742L461.507 773.029L475.383 785.918L495 790.691L479.211 800L453.373 793.556L445 769.21Z" stroke="white" stroke-width="4" stroke-linecap="square"/>
<path d="M1176.22 659.491L1165.25 672.568L1171.27 691.675L1192.61 686.179L1194.44 665.417L1176.22 659.491Z" stroke="white" stroke-width="4" stroke-linecap="square"/>
<path d="M1141.99 667.203L1154.85 670.081M1174.5 653.582L1169.42 637.058M1203.64 659.767L1221.58 648.749M1201.63 689.513L1223.3 703.136M1169.89 700.764L1164.76 715.633" stroke="white" stroke-width="4" stroke-linecap="square"/>
<path d="M1152.8 353.079L1131 371.011M1192.3 353.079L1219 371.011M1171.87 336V393H1152.8" stroke="white" stroke-width="4" stroke-linecap="square"/>
<path d="M6 1136.5L39 1023L98 1136.5H6Z" stroke="white" stroke-width="4" stroke-linecap="square"/>
<path d="M47 1104.5L56.5 1195" stroke="white" stroke-width="4" stroke-linecap="square"/>
<path d="M707.011 806.958L655.652 791.258L659.552 821.521L726.189 841.892L718.664 866.509L741.093 873.365L748.618 848.748L787.625 860.672L788.276 831.8L730.741 814.212L738.768 787.954L715.038 780.7L707.011 806.958Z" stroke="white" stroke-width="4" stroke-linecap="square"/>
<path d="M684.482 800.43L681.781 829.034L704.86 836.089L708.861 807.883L733.566 815.435L725.338 842.349L749.718 849.802L757.945 822.887" stroke="white" stroke-width="4" stroke-linecap="square"/>
<path d="M10.5099 846.802L10.3116 848.792L14.2919 849.188L14.4901 847.198L10.5099 846.802ZM52.5 445.5L54.4901 445.698L54.7092 443.5H52.5V445.5ZM0.585786 444.086C-0.195262 444.867 -0.195262 446.133 0.585786 446.914L13.3137 459.642C14.0948 460.423 15.3611 460.423 16.1421 459.642C16.9232 458.861 16.9232 457.595 16.1421 456.814L4.82843 445.5L16.1421 434.186C16.9232 433.405 16.9232 432.139 16.1421 431.358C15.3611 430.577 14.0948 430.577 13.3137 431.358L0.585786 444.086ZM14.4901 847.198L54.4901 445.698L50.5099 445.302L10.5099 846.802L14.4901 847.198ZM52.5 443.5H2V447.5H52.5V443.5Z" fill="white"/>
<path d="M144.242 125.546L143.288 127.304L146.804 129.212L147.758 127.454L144.242 125.546ZM213 3L213.666 1.11421L212.056 0.545481L211.242 2.04629L213 3ZM397 68L398.573 69.2349L400.294 67.0426L397.666 66.1142L397 68ZM282 214.5L281.106 216.289L282.565 217.019L283.573 215.735L282 214.5ZM176.368 160.103C175.32 160.452 174.753 161.585 175.103 162.632L180.795 179.709C181.144 180.757 182.277 181.323 183.325 180.974C184.372 180.624 184.939 179.492 184.589 178.444L179.53 163.265L194.709 158.205C195.757 157.856 196.323 156.723 195.974 155.675C195.624 154.628 194.492 154.061 193.444 154.411L176.368 160.103ZM147.758 127.454L214.758 3.95371L211.242 2.04629L144.242 125.546L147.758 127.454ZM212.334 4.88579L396.334 69.8858L397.666 66.1142L213.666 1.11421L212.334 4.88579ZM395.427 66.7651L280.427 213.265L283.573 215.735L398.573 69.2349L395.427 66.7651ZM282.894 212.711L177.894 160.211L176.106 163.789L281.106 216.289L282.894 212.711Z" fill="white"/>
<path d="M948.553 1147.7L950.253 1146.65L948.147 1143.25L946.447 1144.3L948.553 1147.7ZM799 1238L797.029 1237.66L796.277 1242.04L800.053 1239.7L799 1238ZM822 1104L823.971 1104.34L824.716 1100L820.959 1102.29L822 1104ZM638.056 1214.53C637.796 1215.6 638.455 1216.68 639.529 1216.94L657.023 1221.18C658.096 1221.44 659.177 1220.78 659.437 1219.71C659.698 1218.64 659.038 1217.56 657.965 1217.3L642.415 1213.53L646.183 1197.98C646.443 1196.9 645.784 1195.82 644.71 1195.56C643.637 1195.3 642.555 1195.96 642.295 1197.04L638.056 1214.53ZM946.447 1144.3L797.947 1236.3L800.053 1239.7L948.553 1147.7L946.447 1144.3ZM800.971 1238.34L823.971 1104.34L820.029 1103.66L797.029 1237.66L800.971 1238.34ZM820.959 1102.29L638.959 1213.29L641.041 1216.71L823.041 1105.71L820.959 1102.29Z" fill="white"/>
</svg>
