<?xml version="1.0" encoding="UTF-8"?>
<svg id="Layer_2" data-name="Layer 2" xmlns="http://www.w3.org/2000/svg" viewBox="0 0 506.16 128.79">
  <defs>
    <style>
      .cls-1 {
        fill: none;
        stroke: #000;
        stroke-width: .57px;
      }

      .cls-2 {
        stroke-width: 0px;
      }
    </style>
  </defs>
  <g id="Layer_1-2" data-name="Layer 1">
    <g>
      <path class="cls-2" d="M24.37,58.75v19.95h7.1v1.26H.71v-1.26h6.31V27.44L0,23.18h25.63c19.4,0,28.31,7.18,28.31,16.96,0,11.67-10.65,18.45-29.57,18.61ZM24.37,24.45v33.04c6.86-.08,11.44-6.55,11.44-17.27s-4.26-15.77-10.57-15.77h-.87Z"/>
      <path class="cls-2" d="M52.28,57.88h3.94V10.96l-4.5-3.86L72,0v57.88h3.94v1.26h-23.66v-1.26Z"/>
      <path class="cls-2" d="M116.16,72v1.26h-19.72v-4.5c-3.71,3.15-7.89,5.28-12.22,5.28-5.13,0-8.6-2.92-8.6-7.89,0-7.26,7.73-12.07,20.82-13.49,0-8.67-3.47-13.01-9.46-13.01-3.55,0-5.99.95-8.67,3l-.39-.39c5.36-5.99,11.2-9.23,19.08-9.23,9.94,0,15.22,5.68,15.22,17.11v21.84h3.94ZM96.45,67.66v-13.96c-4.73,1.34-6.55,4.34-6.55,8.52,0,3.71,1.58,5.68,4.73,5.68.47,0,1.1-.08,1.81-.24Z"/>
      <path class="cls-2" d="M162.45,51.02l-5.28,3.86-17.11,34.78-9.38,20.58-14.98-10.49,22.95-10.49-18.61-34.38-5.36-3.86h27.68l-5.28,3.86,8.75,20.74,7.41-20.74-6.07-3.86h15.3Z"/>
      <path class="cls-2" d="M193.52,54.1c-2.92,4.65-8.12,8.04-15.38,8.04-9.38,0-13.09-5.52-13.09-15.77v-22.4h-6.07v-.08l21.84-17.19v16.01h11.12v1.26h-11.12v18.38c0,9.15,2.13,12.54,7.97,12.54,1.73,0,3.08-.24,4.65-.87l.08.08Z"/>
      <path class="cls-2" d="M231.06,72.87c-3.31,5.05-8.6,7.89-15.93,7.89-11.12,0-20.27-7.73-20.27-19.95,0-11.51,7.73-21.06,20.35-21.06,7.41,0,12.54,4.34,12.54,10.09,0,6.55-5.05,12.3-14.51,15.85,4.5,4.42,10.17,7.33,15.46,7.33.79,0,1.58-.08,2.29-.24l.08.08ZM204.64,47.16c0,6.55,3.39,13.17,8.12,18.06,2.21-2.84,3.08-5.99,3.08-10.02,0-6.86-4.57-12.7-7.97-12.7-2.05,0-3.23,1.73-3.23,4.65Z"/>
      <path class="cls-2" d="M231.53,93.29l2.44-12.85h.08l9.78,13.09c1.1.32,1.66.39,2.6.39,3.47,0,5.84-1.81,5.84-5.05,0-2.37-1.42-3.71-4.73-5.44l-5.2-2.76c-6.55-3.47-9.7-7.18-9.7-13.17,0-7.96,6.47-13.17,16.96-13.17,5.13,0,9.23.87,13.09,2.29l-3.08,12.46h-.08l-9.15-13.01c-.39-.16-.95-.24-1.34-.24-3.47,0-5.2,1.97-5.2,4.18,0,2.76,1.26,4.73,5.91,7.18l5.91,3.15c5.44,2.92,8.28,6.86,8.28,11.75,0,8.2-8.28,13.25-17.98,13.25-3.71,0-8.91-.39-14.43-2.05Z"/>
      <path class="cls-2" d="M294.54,72.71c-2.92,4.65-8.12,8.04-15.38,8.04-9.38,0-13.09-5.52-13.09-15.77v-22.4h-6.07v-.08l21.84-17.19v16.01h11.12v1.26h-11.12v18.38c0,9.15,2.13,12.54,7.97,12.54,1.73,0,3.08-.24,4.65-.87l.08.08Z"/>
      <path class="cls-2" d="M343.42,70l-19.26-27.33-6.07,6.25v21.08h-13.01V7.71h13.01v25.33l23.77-25.33h16.83l-25.42,25.5,26.89,36.78h-16.74Z"/>
      <path class="cls-2" d="M381.24,80.75l-.69,2c-3.21,9.02-4.42,11.89-6.51,14.23-2,2.17-4.94,3.12-10.84,3.12-.95,0-1.82-.17-4.86-.17h-.43v-9.72c1.04.26,1.47.17,2.43.17,5.21,0,6.77-1.13,7.89-6.94l-17-48.06h13.53l9.89,33.92.17.09,9.46-34.01h12.84l-15.88,45.37Z"/>
      <path class="cls-2" d="M411.34,101.75c-14.23,0-23.6-9.54-23.6-24.29s9.37-24.29,23.6-24.29,23.6,9.63,23.6,24.2-9.2,24.38-23.6,24.38ZM411.34,63.4c-7.29,0-11.1,4.94-11.1,14.05s3.82,14.05,11.1,14.05,11.1-4.94,11.1-14.05-3.82-14.05-11.1-14.05Z"/>
      <path class="cls-2" d="M449.42,53.77v37.48h-12.14v-37.48h-6.33v-8.68h6.33v-12.49h12.14v12.49h7.2v8.68h-7.2Z"/>
      <path class="cls-2" d="M482.56,72.6c-14.23,0-23.6-9.54-23.6-24.29s9.37-24.29,23.6-24.29,23.6,9.63,23.6,24.2-9.2,24.38-23.6,24.38ZM482.56,34.26c-7.29,0-11.1,4.94-11.1,14.05s3.82,14.05,11.1,14.05,11.1-4.94,11.1-14.05-3.82-14.05-11.1-14.05Z"/>
    </g>
    <g id="_2024" data-name="2024">
      <g>
        <path class="cls-1" d="M372,128.51c8.2,0,14.86-6.65,14.86-14.86s-6.65-14.86-14.86-14.86-14.86,6.65-14.86,14.86,6.65,14.86,14.86,14.86Z"/>
        <path class="cls-1" d="M365.27,123.39c.08-1.49.16-2.09.52-3.01.22-.62.54-1.25.98-1.82.95-1.22,1.55-1.76,3.91-3.5,2.09-1.52,2.33-1.71,3.12-2.66.54-.62.81-1.38.81-2.25,0-1.74-1.09-2.82-2.71-2.82-1,0-1.74.35-2.2,1.06-.35.54-.49,1.14-.52,2.55h-3.69c.03-.43.03-.76.05-.98.08-1.33.35-2.22.9-3.12,1.06-1.76,2.9-2.71,5.37-2.71,3.93,0,6.59,2.44,6.59,6.05,0,1.71-.57,3.15-1.68,4.37-.68.76-1.03,1.06-3.04,2.41-.87.62-1.63,1.17-2.36,1.74-.68.52-.9.76-1.25,1.33h8.35v3.36h-13.16Z"/>
      </g>
      <g>
        <path class="cls-1" d="M437.09,128.51c8.2,0,14.86-6.65,14.86-14.86s-6.65-14.86-14.86-14.86-14.86,6.65-14.86,14.86,6.65,14.86,14.86,14.86Z"/>
        <path class="cls-1" d="M430.36,123.39c.08-1.49.16-2.09.52-3.01.22-.62.54-1.25.98-1.82.95-1.22,1.55-1.76,3.91-3.5,2.09-1.52,2.33-1.71,3.12-2.66.54-.62.81-1.38.81-2.25,0-1.74-1.09-2.82-2.71-2.82-1,0-1.74.35-2.2,1.06-.35.54-.49,1.14-.52,2.55h-3.69c.03-.43.03-.76.05-.98.08-1.33.35-2.22.9-3.12,1.06-1.76,2.9-2.71,5.37-2.71,3.93,0,6.59,2.44,6.59,6.05,0,1.71-.57,3.15-1.68,4.37-.68.76-1.03,1.06-3.04,2.41-.87.62-1.63,1.17-2.36,1.74-.68.52-.9.76-1.25,1.33h8.35v3.36h-13.16Z"/>
      </g>
      <g>
        <path class="cls-1" d="M469.64,128.51c8.2,0,14.86-6.65,14.86-14.86s-6.65-14.86-14.86-14.86-14.86,6.65-14.86,14.86,6.65,14.86,14.86,14.86Z"/>
        <path class="cls-1" d="M474.96,117.04v6.35h-3.8v-6.35h-7.81v-12.91h3.8v9.96h4.01v-6.84h3.8v6.84h1.3v2.96h-1.3Z"/>
      </g>
      <g>
        <path class="cls-1" d="M404.55,128.51c8.2,0,14.86-6.65,14.86-14.86s-6.65-14.86-14.86-14.86-14.86,6.65-14.86,14.86,6.65,14.86,14.86,14.86Z"/>
        <path class="cls-1" d="M409.92,120.95c-1.06,1.98-2.88,2.96-5.4,2.96-4.53,0-6.65-3.15-6.65-9.79s2.06-9.98,6.7-9.98c2.36,0,4.15.92,5.21,2.66.87,1.44,1.44,4.67,1.44,7.68,0,2.44-.52,5.05-1.3,6.48ZM406.45,108.12c-.38-.62-1.03-.95-1.95-.95-2.03,0-2.71,1.74-2.71,6.62,0,5.43.65,7.08,2.79,7.08,1,0,1.65-.41,2.09-1.38.19-.41.3-.76.35-1.09.22-1.08.3-3.31.3-5.18,0-2.41-.3-4.1-.87-5.1Z"/>
      </g>
    </g>
  </g>
</svg>